<svg xmlns="http://www.w3.org/2000/svg" width="800" height="800" xmlns:v="https://vecta.io/nano"><path d="M320,320.59v39h40v-39Zm-37.5-162v42H320v-42Zm37.5,42v40.5h40V200.6Zm0,120v39h40v-39Zm-37.5-162v42H320v-42Zm37.5,42v40.5h40V200.6Zm0,120v39h40v-39Zm-37.5-162v42H320v-42Zm37.5,42v40.5h40V200.6Zm0,120v39h40v-39Zm-37.5-162v42H320v-42Zm37.5,42v40.5h40V200.6Zm120.45,159V400h81V359.59Zm-40.5-39v39h40.5v-39Zm-80,0v39h40v-39Zm-37.5-162v42H320v-42Zm37.5,42v40.5h40V200.6Zm120.45,159V400h81V359.59Zm-40.5-39v39h40.5v-39Zm-80,0v39h40v-39Zm-37.5-162v42H320v-42Zm37.5,42v40.5h40V200.6Zm120.45,159V400h81V359.59Zm-40.5-39v39h40.5v-39ZM161.06,562.08v40.5h39.5v-40.5Zm-42,40.5v39h42v-39Zm201-282v39h40v-39Zm-37.5-162v42H320v-42Zm37.5,42v40.5h40V200.6Zm120.45,159V400h81V359.59Zm-40.5-39v39h40.5v-39Zm-239,241.5v40.5h39.5v-40.5Zm-42,40.5v39h42v-39Zm201-282v39h40v-39Zm-37.5-162v42H320v-42Zm37.5,42v40.5h40V200.6Zm120.45,159V400h81V359.59Zm-40.5-39v39h40.5v-39Zm-239,241.5v40.5h39.5v-40.5Zm-42,40.5v39h42v-39Zm201-282v39h40v-39Zm-37.5-162v42H320v-42Zm37.5,42v40.5h40V200.6Zm0,321v40.5h40v-40.5Zm120.45-162V400h81V359.59Zm-40.5-39v39h40.5v-39Zm-239,241.5v40.5h39.5v-40.5Zm-42,40.5v39h42v-39Zm163.49-444v42H320v-42Zm37.5,42v40.5h40V200.6Zm40-42v42h40v-42Zm0,82.5v79.49H320v39h80V241.1Zm-40,280.5v40.5h40v-40.5Zm120.45-162V400h81V359.59Zm-40.5-39v39h40.5v-39ZM161.06,562.08v40.5h39.5v-40.5Zm-42,40.5v39h42v-39Zm163.49-444v42H320v-42Zm37.5,42v40.5h40V200.6Zm40-42v42h40v-42Zm0,82.5v79.49H320v39h80V241.1Zm-40,280.5v40.5h40v-40.5Zm120.45-162V400h81V359.59Zm-40.5-39v39h40.5v-39ZM161.06,562.08v40.5h39.5v-40.5Zm-42,40.5v39h42v-39Zm163.49-444v42H320v-42Zm37.5,42v40.5h40V200.6Zm40-42v42h40v-42Zm0,82.5v79.49H320v39h80V241.1Zm0,199.49v39h40v-39Zm-40,81v40.5h40v-40.5Zm120.45-162V400h81V359.59Zm-40.5-39v39h40.5v-39ZM161.06,562.08v40.5h39.5v-40.5Zm-42,40.5v39h42v-39ZM240.55,400v40.59h42v39H320V400Zm42-241.4v42H320v-42Zm37.5,42v40.5h40V200.6Zm40-42v42h40v-42Zm0,82.5v79.49H320v39h80V241.1ZM440.5,359.59V400h81V359.59Zm-40.5-39v39h40.5v-39Zm-40,120v39h40v-39Zm-40,81v40.5h40v-40.5Zm-159,40.5v40.5h39.5v-40.5Zm-42,40.5v39h42v-39ZM240.55,400v40.59h42v39H320V400Zm42-241.4v42H320v-42Zm37.5,42v40.5h40V200.6Zm40-42v42h40v-42Zm0,82.5v79.49H320v39h80V241.1ZM440.5,359.59V400h81V359.59Zm-40.5-39v39h40.5v-39Zm-40,120v39h40v-39Zm-40,81v40.5h40v-40.5Zm-159,40.5v40.5h39.5v-40.5Zm-42,40.5v39h42v-39ZM240.55,400v40.59h42v39H320V400Zm42-241.4v42H320v-42Zm37.5,42v40.5h40V200.6Zm40-42v42h40v-42Zm0,82.5v79.49H320v39h80V241.1Zm0,199.49v39h40v-39Zm-40,81v40.5h40v-40.5Zm120.45-162V400h81V359.59Zm-40.5-39v39h40.5v-39Zm360.49,39V400H800V359.59ZM161.06,562.08v40.5h39.5v-40.5Zm-42,40.5v39h42v-39ZM240.55,400v40.59h42v39H320V400Zm42-241.4v42H320v-42Zm37.5,42v40.5h40V200.6Zm40-42v42h40v-42Zm0,82.5v79.49H320v39h80V241.1Zm0,199.49v39h40v-39Zm-40,81v40.5h40v-40.5Zm120.45-162V400h81V359.59Zm-40.5-39v39h40.5v-39Zm360.49-120v40.5H800V200.6ZM161.06,562.08v40.5h39.5v-40.5Zm-42,40.5v39h42v-39ZM240.55,400v40.59h42v39H320V400Zm42-241.4v42H320v-42Zm37.5,42v40.5h40V200.6Zm40-42v42h40v-42Zm0,82.5v79.49H320v39h80V241.1Zm0,199.49v39h40v-39Zm-40,81v40.5h40v-40.5Zm120.45-162V400h81V359.59Zm-40.5-39v39h40.5v-39ZM161.06,562.08v40.5h39.5v-40.5Zm-42,40.5v39h42v-39ZM240.55,400v40.59h42v39H320V400Zm42-241.4v42H320v-42Zm37.5,42v40.5h40V200.6Zm40-42v42h40v-42Zm0,82.5v79.49H320v39h80V241.1Zm0,199.49v39h40v-39Zm-40,81v40.5h40v-40.5Zm120.45-162V400h81V359.59Zm-40.5-39v39h40.5v-39Zm360.49,360v40.49H800v-40.5ZM161.06,562.08v40.5h39.5v-40.5Zm-42,40.5v39h42v-39ZM240.55,400v40.59h42v39H320V400Zm42-241.4v42H320v-42Zm37.5,42v40.5h40V200.6Zm40-42v42h40v-42Zm0,82.5v79.49H320v39h80V241.1Zm0,199.49v39h40v-39Zm-40,81v40.5h40v-40.5Zm120.45-162V400h81V359.59Zm-40.5-39v39h40.5v-39Zm-40,120v39h40v-39Zm-40,81v40.5h40v-40.5Zm-37.5-81v39H320v-39ZM161.06,562.08v40.5h39.5v-40.5Zm-42,40.5v39h42v-39ZM240.55,400v40.59H320V400Zm42-241.4v42H320v-42Zm37.5,42v40.5h40V200.6Zm40-42v42h40v-42Zm0,82.5v79.49H320v39h80V241.1ZM440.5,359.59V400h81V359.59Zm-40.5-39v39h40.5v-39Zm-40,120v39h40v-39Zm-40,81v40.5h40v-40.5Zm-37.5-81v39H320v-39ZM161.06,562.08v40.5h39.5v-40.5Zm-42,40.5v39h42v-39ZM240.55,400v40.59H320V400Zm42-241.4v42H320v-42Zm37.5,42v40.5h40V200.6Zm40-42v42h40v-42Zm0,82.5v79.49H320v39h80V241.1ZM440.5,359.59V400h81V359.59Zm-40.5-39v39h40.5v-39Zm-40,120v39h40v-39Zm-40,81v40.5h40v-40.5Zm-37.5-81v39H320v-39ZM161.06,562.08v40.5h39.5v-40.5Zm-42,40.5v39h42v-39ZM240.55,400v40.59H320V400Zm42-241.4v42H320v-42Zm37.5,42v40.5h40V200.6Zm40-42v42h40v-42Zm0,82.5V359.59h40V241.1Zm-280,0v43.4h39V241.1ZM360,440.59v39h40v-39Zm-40,81v40.5h40v-40.5Zm-37.5-81v39H320v-39ZM161.06,562.08v40.5h39.5v-40.5Zm-42,40.5v39h42v-39Zm163.49-444v42H320v-42Zm37.5,42v40.5h40V200.6Zm40-42v42h40v-42Zm0,82.5V359.59h40V241.1Zm0,199.49v39h40v-39Zm-40,81v40.5h40v-40.5Zm-37.5-81v39H320v-39ZM161.06,562.08v40.5h39.5v-40.5Zm-42,40.5v39h42v-39Zm163.49-444v42H320v-42Zm37.5,42v40.5h40V200.6Zm40-42v42h40v-42Zm0,82.5V359.59h40V241.1Zm80.45-82.5v42h39v-42Zm-40.5-39v39h40.5v-39Zm40.5,39v42h39v-42Zm-40.5-39v39h40.5v-39Zm40.5,39v42h39v-42Zm-40.5-39v39h40.5v-39Zm40.5,39v42h39v-42Zm-40.5-39v39h40.5v-39Zm40.5,39v42h39v-42Zm-40.5-39v39h40.5v-39Zm40.5,39v42h39v-42Zm-40.5-39v39h40.5v-39Zm40.5,39v42h39v-42Zm-40.5-39v39h40.5v-39Zm40.5,39v42h39v-42Zm-40.5-39v39h40.5v-39Zm40.5,39v42h39v-42Zm-40.5-39v39h40.5v-39Zm40.5,39v42h39v-42Zm-40.5-39v39h40.5v-39Zm40.5,39v42h39v-42Zm-40.5-39v39h40.5v-39Zm40.5,39v42h39v-42Zm-40.5-39v39h40.5v-39Zm40.5,39v42h39v-42Zm-40.5-39v39h40.5v-39Zm40.5,39v42h39v-42Zm-40.5-39v39h40.5v-39Zm40.5,39v42h39v-42Zm-40.5-39v39h40.5v-39Zm40.5,39v42h39v-42Zm-40.5-39v39h40.5v-39Zm0,201v39h40.5v-39Zm0-201v39h40.5v-39Zm0,0v39h40.5v-39Zm0,0v39h40.5v-39Zm0,0v39h40.5v-39Zm0,0v39h40.5v-39Zm0,0v39h40.5v-39Zm0,0v39h40.5v-39Zm0,0v39h40.5v-39Zm0,0v39h40.5v-39Zm0,0v39h40.5v-39ZM479.5,0V38.61h42V0ZM400,158.6h40.5v-39H400Zm0-39v39h40.5v-39Zm0,0v39h40.5v-39Zm0,0v39h40.5v-39Zm0,0v39h40.5v-39Zm0,0v39h40.5v-39Zm0,0v39h40.5v-39Zm0,0v39h40.5v-39Zm0,0v39h40.5v-39Zm0,0v39h40.5v-39Zm0,0v39h40.5v-39Zm0,201v39h40.5v-39Zm40.5-162v42h39v-42Zm-40.5-39v39h40.5v-39Zm40.5,39v42h39v-42Zm-40.5-39v39h40.5v-39Zm40.5,39v42h39v-42Zm-40.5-39v39h40.5v-39Zm40.5,39v42h39v-42Zm-40.5-39v39h40.5v-39Zm40.5,39v42h39v-42Zm-40.5-39v39h40.5v-39Zm40.5,39v42h39v-42Zm-40.5-39v39h40.5v-39Zm40.5,39v42h39v-42Zm-40.5-39v39h40.5v-39Zm40.5,39v42h39v-42Zm-40.5-39v39h40.5v-39Zm40.5,39v42h39v-42Zm-40.5-39v39h40.5v-39Zm40.5,39v42h39v-42Zm-40.5-39v39h40.5v-39Zm40.5,39v42h39v-42Zm-40.5-39v39h40.5v-39Zm40.5,39v42h39v-42Zm-40.5-39v39h40.5v-39Zm40.5,39v42h39v-42Zm-40.5-39v39h40.5v-39Zm40.5,39v42h39v-42Zm-40.5-39v39h40.5v-39Zm40.5,39v42h39v-42Zm-40.5-39v39h40.5v-39Zm40.5,39v42h39v-42Zm-40.5-39v39h40.5v-39Zm-40,321v39h40v-39Zm-40,81v40.5h40V521.6Zm-37.5-81v39H320v-39ZM161.06,562.08v40.5h39.5v-40.5Zm-42,40.5v39h42v-39Zm241-162v39h40v-39Zm-40,81v40.5h40v-40.5Zm-37.5-81v39H320v-39Zm-121.5,121.5v40.5h39.5v-40.5Zm-42,40.5v39h42v-39ZM0,79.11V119.6H39.56V79.11ZM39.56,0V79.11h40.5V0Zm79.5,79.11V119.6h42V79.11ZM282.55,119.6v39h-82v42H320v-81Zm-121.49,0v39h39.5v-39Zm39.5-81V79.1h40V38.61ZM360,440.59v39h40v-39Zm-40,81v40.5h40v-40.5Zm-37.5-81v39H320v-39ZM561,158.6v42h40v-42Zm-39.5-120v81H601v-81ZM360,440.59v39h40v-39Zm-40,81v40.5h40v-40.5Zm-37.5-81v39H320v-39Zm397.94,240v-39H643V800h37.5V721.07h40V680.58ZM360,440.59v39h40v-39Zm-40,81v40.5h40v-40.5Zm-37.5-81v39H320v-39Zm0,0v39H320v-39Zm37.5,81v40.5h40v-40.5Zm80-201v39h40.5v-39Zm-117.45,120v39H320v-39Zm37.5,81v40.5h40v-40.5Zm80-201v39h40.5v-39Zm-80,201v40.5h40v-40.5Zm80-201v39h40.5v-39ZM643,562.08v40.5h37.5v-40.5Zm-323-40.5v40.5h40v-40.5Zm80-201v39h40.5v-39Zm-80,201v40.5h40v-40.5Zm80-201v39h40.5v-39Zm0,0v39h40.5v-39Zm40.5,39V400h81V359.59ZM760.5,79.1v40.5H800V79.11ZM561,158.6v42h40v-42Zm0,0v42h40v-42Zm0,0v42h40v-42Zm0,0v42h40v-42Zm0,0v42h40v-42Zm0,0v42h40v-42Zm0,0v42h40v-42Zm0,0v42h40v-42Zm0,0v42h40v-42Zm0,0v42h40v-42Zm82,42v83.9H561v75.09h82v-39h37.5V241.1h40V200.6Zm0-81v39h37.5v-39Zm-82,39v42h40v-42Zm0,0v42h40v-42Zm0,0v42h40v-42Zm0,0v42h40v-42Zm0,0v42h40v-42ZM680.49,0V119.6h40V79.11h40V0ZM561,158.6v42h40v-42Zm0,0v42h40v-42Zm0,0v42h40v-42Zm0,0v42h40v-42Zm0,0v42h40v-42ZM760.5,284.5v36.09H800V284.5ZM320,521.58v40.5h40v-40.5Zm120.45-162V400h81V359.59ZM320,521.58v40.5h40v-40.5Zm80-201v39h40.5v-39Zm40.5,39V400h81V359.59ZM320,521.58v40.5h40v-40.5Zm80-201v39h40.5v-39Zm40.5,39V400h81V359.59ZM320,521.58v40.5h40v-40.5Zm-79.5,81v-40.5h-40v-40.5H80.06v40.5h81v40.5h-42v39h81.5v39h40v40.49h42V680.58H320v-78Zm-40,157.49V800h40V760.07Zm0-79.49H119v-39H80v-39H39.56v39H0v79.49H39.56V680.58h40.5v40.49h81v39h39.5Zm-161,79.49V800H161V760.07Zm320.49,0V680.58H320v40.49H282.5V800H400V760.07Zm40-439.48v39h40.5v-39Zm40.5,39V400h81V359.59Zm-40.5-39v39h40.5v-39Zm40.5,39V400h81V359.59Zm0,0V400h81V359.59ZM400,400v40.59H360v39h80.5V400Zm40.5-40.41V400h81V359.59Zm0,0V400h81V359.59Zm0,0V400h81V359.59Zm0,0V400h81V359.59Zm0,0V400h81V359.59Zm39,282v-39h-39v-40.5H400v159h40.5V800h39V680.58h-39v-39Zm-39-282V400h81V359.59Zm39,162v40.5h42v-40.5Zm-39-162V400h81V359.59Zm0,0V400h81V359.59Zm0,0V400h81V359.59Zm0,0V400h81V359.59Zm202.49,0v81H601v81H561v40.5H521.5v159H561V602.58h40v-40.5h42V479.59h37.5V400h40V359.59Zm-121.5,0h-81V400h81Zm-81,0V400h81V359.59Zm0,0V400h81V359.59Zm0,0V400h81V359.59Zm0,0V400h81V359.59Zm0,0V400h81V359.59Zm0,0V400h81V359.59Zm0,0V400h81V359.59Zm0,0V400h81V359.59Zm0,0V400h81V359.59Zm0,0V400h81V359.59Zm0,0V400h81V359.59Zm0,0V400h81V359.59Zm-40.5-39v39h40.5v-39Zm40.5,39V400h81V359.59Zm-40.5-39v39h40.5v-39Zm-80,201v40.5h40v-40.5Zm120.45-162V400h81V359.59Zm-40.5-39v39h40.5v-39Zm-80,201v40.5h40v-40.5Zm120.45-162V400h81V359.59Zm-40.5-39v39h40.5v-39Zm-80,201v40.5h40v-40.5Zm80-201v39h40.5v-39Zm-80,201v40.5h40v-40.5Zm80-201v39h40.5v-39Zm-80,201v40.5h40v-40.5Zm80-201v39h40.5v-39Zm-80,201v40.5h40v-40.5ZM643,400v40.59H601v39h79.5V400Zm0,0v40.59H601v39h79.5V400Zm0,0v40.59H601v39h79.5V400Zm0,0v40.59H601v39h79.5V400Zm0,0v40.59H601v39h79.5V400Zm0,0v40.59H601v39h79.5V400Zm0,0v40.59H601v39h79.5V400Zm0,0v40.59H601v39h79.5V400Zm0,0v40.59H601v39h79.5V400Zm0,0v40.59H601v39h79.5V400Zm0,0v40.59H601v39h79.5V400Zm0,0v40.59H601v39h79.5V400Zm0,0v40.59H601v39h79.5V400Zm0,0v40.59H601v39h79.5V400Zm0,0v40.59H601v39h79.5V400Zm0,0v40.59H601v39h79.5V400Zm0,0v40.59H601v39h79.5V400Zm0,0v40.59H601v39h79.5V400Zm117.5,79.59v42h-40v40.5H800v-82.5Zm-117.5-39H601v39h79.5V400H643ZM643,400v40.59H601v39h79.5V400Zm0,0v40.59H601v39h79.5V400Zm0,0v40.59H601v39h79.5V400Zm0,0v40.59H601v39h79.5V400Zm0,0v40.59H601v39h79.5V400Zm0,0v40.59H601v39h79.5V400Zm0,0v40.59H601v39h79.5V400Zm0,0v40.59H601v39h79.5V400Zm0,0v40.59H601v39h79.5V400Zm0,0v40.59H601v39h79.5V400Zm0,0v40.59H601v39h79.5V400Zm0,0v40.59H601v39h79.5V400Zm0,0v40.59H601v39h79.5V400Zm0,0v40.59H601v39h79.5V400Zm0,0v40.59H601v39h79.5V400Zm0,0v40.59H601v39h79.5V400Zm0,0v40.59H601v39h79.5V400Zm0,0v40.59H601v39h79.5V400ZM400,320.59v39h40.5v-39Zm-80,201v40.5h40v-40.5Zm-37.5-81v39H320v-39Zm117.5-120v39h40.5v-39Zm-80,201v40.5h40v-40.5Zm-37.5-81v39H320v-39Zm158-282v42h39v-42Zm-40.5-39v39h40.5v-39Zm-80,81v40.5h40V200.6Zm40-42v42h40v-42Zm40,162V241.1H360v79.49H320v39H440.5v-39ZM119.06,284.5v36.09h42V284.5ZM282.55,400V320.59H161.06v39h-42V400h81.5V359.59h40v81h42v39H320V400ZM320,521.58v40.5h40v-40.5Zm-37.5-81v39H320v-39Zm37.5,81v40.5h40v-40.5Zm40-81v39h40v-39Zm-77.5,0v39H320v-39Zm37.5,81v40.5h40v-40.5Zm40-81v39h40v-39ZM161,241.09v43.4h79.49V241.1Zm121.55,199.5v39H320v-39Zm37.5,81v40.5h40v-40.5Zm40-81v39h40v-39Zm-40-120v39h40v-39Zm-159,0v39H119V400h81.5V359.59h82v-39Zm0,0v39H119V400h81.5V359.59h82v-39Zm0,0v39H119V400h81.5V359.59h82v-39Zm0,0v39H119V400h81.5V359.59h82v-39Zm0,0v39H119V400h81.5V359.59h82v-39ZM0,200.6v83.9H39.56V200.6ZM0,400v79.59H80.06V400Zm39.56-79.41v39h40.5v-39Zm121.5,0v39h-42V400h81.5V359.59h82v-39Zm0,0v39h-42V400h81.5V359.59h82v-39Zm0,0v39h-42V400h81.5V359.59h82v-39Zm0,0v39h-42V400h81.5V359.59h82v-39Zm0,0v39h-42V400h81.5V359.59h82v-39Zm159,0v39h40v-39Zm-159,0v39h-42V400h81.5V359.59h82v-39Zm-42,282v39h42v-39Zm42-40.5v40.5h39.5v-40.5Zm121.49-121.5v39H320v-39Zm37.5,81v40.5h40v-40.5Zm40-81v39h40v-39ZM360,0V38.61h40V0Zm40,38.61v40.5h40.5V38.61ZM240.55,0V38.61h42V0Zm42,158.6v42H320v-42Zm37.5,42v40.5h40V200.6Zm40-42v42h40v-42Zm0,82.5V359.59h40V241.1ZM119,602.58v39h42v-39Zm42-40.5v40.5h39.5v-40.5Zm121.5-121.49v39H320v-39Zm37.5,81v40.5h40v-40.5Zm40-81v39h40v-39Zm-77.5-282v42H320v-42Zm37.5,42v40.5h40V200.6Zm40-42v42h40v-42Zm0,82.5v118.5h40V241.1ZM119,602.57v39h42v-39Zm42-40.5v40.5h39.5v-40.5Zm121.5-121.48v39H320v-39Zm37.5,81v40.5h40v-40.5Zm40-81v39h40v-39Zm-77.5-282v42H320v-42Zm37.5,42v40.5h40V200.6Zm40-42v42h40v-42Zm0,82.5v118.5h40V241.1ZM240.55,400v40.59H320V400ZM119.06,602.58v39h42v-39Zm42-40.5v40.5h39.5v-40.5ZM282.55,440.59v39H320v-39Zm37.5,81v40.5h40v-40.5Zm40-81v39h40v-39Zm80.45-81V400h81V359.59Zm-40.5-39v39h40.5v-39Zm-117.45-162v42H320v-42Zm37.5,42v40.5h40V200.6Zm40-42v42h40v-42Zm0,82.5v118.5h40V241.1ZM240.55,400v40.59H320V400ZM119.06,602.58v39h42v-39Zm42-40.5v40.5h39.5v-40.5ZM282.55,440.59v39H320v-39Zm37.5,81v40.5h40v-40.5Zm40-81v39h40v-39Zm80.45-81V400h81V359.59Zm-40.5-39v39h40.5v-39Zm-117.45-162v42H320v-42Zm37.5,42v40.5h40V200.6Zm40-42v42h40v-42Zm0,82.5v79.49H320v39h80V241.1ZM240.55,400v40.59H320V400ZM119.06,602.58v39h42v-39Zm42-40.5v40.5h39.5v-40.5ZM282.55,440.59v39H320v-39Zm37.5,81v40.5h40v-40.5Zm40-81v39h40v-39Zm80.45-81V400h81V359.59Zm-40.5-39v39h40.5v-39Zm-117.45-162v42H320v-42Zm37.5,42v40.5h40V200.6Zm40-42v42h40v-42Zm0,82.5v79.49H320v39h80V241.1ZM240.55,400v40.59H320V400ZM119.06,602.58v39h42v-39Zm42-40.5v40.5h39.5v-40.5ZM282.55,440.59v39H320v-39Zm37.5,81v40.5h40v-40.5Zm40-81v39h40v-39Zm80.45-81V400h81V359.59Zm-40.5-39v39h40.5v-39Zm-80,201v40.5h40v-40.5Zm40-81v39h40v-39Zm-77.5-282v42H320v-42Zm37.5,42v40.5h40V200.6Zm40-42v42h40v-42Zm0,82.5v79.49H320v39h80V241.1ZM240.55,400v40.59h42v39H320V400ZM119.06,602.58v39h42v-39Zm42-40.5v40.5h39.5v-40.5ZM440.5,359.59V400h81V359.59Zm-40.5-39v39h40.5v-39Zm-80,201v40.5h40v-40.5Zm40-81v39h40v-39Zm-77.5-282v42H320v-42Zm37.5,42v40.5h40V200.6Zm40-42v42h40v-42Zm0,82.5v79.49H320v39h80V241.1ZM240.55,400v40.59h42v39H320V400ZM119.06,602.58v39h42v-39Zm42-40.5v40.5h39.5v-40.5ZM440.5,359.59V400h81V359.59Zm-40.5-39v39h40.5v-39Zm-80,201v40.5h40v-40.5Zm40-81v39h40v-39Zm-77.5-282v42H320v-42Zm37.5,42v40.5h40V200.6Zm40-42v42h40v-42Zm0,82.5v79.49H320v39h80V241.1ZM240.55,400v40.59h42v39H320V400ZM119.06,602.58v39h42v-39Zm42-40.5v40.5h39.5v-40.5ZM440.5,359.59V400h81V359.59Zm-40.5-39v39h40.5v-39Zm-80,201v40.5h40v-40.5Zm40-81v39h40v-39Zm-77.5-282v42H320v-42Zm37.5,42v40.5h40V200.6Zm40-42v42h40v-42Zm0,82.5v79.49H320v39h80V241.1ZM240.55,400v40.59h42v39H320V400ZM119.06,602.58v39h42v-39Zm42-40.5v40.5h39.5v-40.5Zm159-40.5v40.5h40v-40.5Zm40-81v39h40v-39Zm80.45-81V400h81V359.59Zm-40.5-39v39h40.5v-39Zm-117.45-162v42H320v-42Zm37.5,42v40.5h40V200.6Zm40-42v42h40v-42Zm0,82.5v79.49H320v39h80V241.1ZM240.55,400v40.59h42v39H320V400ZM119.06,602.58v39h42v-39Zm42-40.5v40.5h39.5v-40.5Zm159-40.5v40.5h40v-40.5Zm40-81v39h40v-39Zm80.45-81V400h81V359.59Zm-40.5-39v39h40.5v-39Zm-117.45-162v42H320v-42Zm37.5,42v40.5h40V200.6Zm40-42v42h40v-42Zm0,82.5v79.49H320v39h80V241.1ZM240.55,400v40.59h42v39H320V400ZM119.06,602.58v39h42v-39Zm42-40.5v40.5h39.5v-40.5Zm159-40.5v40.5h40v-40.5Zm40-81v39h40v-39Zm80.45-81V400h81V359.59Zm-40.5-39v39h40.5v-39Zm-117.45-162v42H320v-42Zm37.5,42v40.5h40V200.6Zm40-42v42h40v-42Zm0,82.5v79.49H320v39h80V241.1ZM240.55,400v40.59h42v39H320V400ZM119.06,602.58v39h42v-39Zm42-40.5v40.5h39.5v-40.5ZM440.5,359.59V400h81V359.59Zm-40.5-39v39h40.5v-39Zm-80,201v40.5h40v-40.5Zm-37.5-363v42H320v-42Zm37.5,42v40.5h40V200.6Zm40-42v42h40v-42Zm0,82.5v79.49H320v39h80V241.1ZM119,602.57v39h42v-39Zm42-40.5v40.5h39.5v-40.5ZM440.5,359.59V400h81V359.59Zm-40.5-39v39h40.5v-39Zm-80,201v40.5h40v-40.5Zm-37.5-363v42H320v-42Zm37.5,42v40.5h40V200.6Zm40-42v42h40v-42Zm0,82.5v79.49H320v39h80V241.1ZM119,602.57v39h42v-39Zm42-40.5v40.5h39.5v-40.5ZM440.5,359.59V400h81V359.59Zm-40.5-39v39h40.5v-39Zm-80,201v40.5h40v-40.5Zm-37.5-363v42H320v-42Zm37.5,42v40.5h40V200.6Zm40-42v42h40v-42Zm0,82.5v79.49H320v39h80V241.1ZM119,602.57v39h42v-39Zm42-40.5v40.5h39.5v-40.5ZM440.5,359.59V400h81V359.59Zm-40.5-39v39h40.5v-39Zm-80,0v39h40v-39Zm-37.5-162v42H320v-42Zm37.5,42v40.5h40V200.6Zm-201,402v39h42v-39Zm42-40.5v40.5h39.5v-40.5Zm279.5-202.5V400h81V359.59Zm-40.5-39v39h40.5v-39Zm-80,0v39h40v-39Zm-37.5-162v42H320v-42Zm37.5,42v40.5h40V200.6Zm-201,402v39h42v-39Zm42-40.5v40.5h39.5v-40.5Zm279.5-202.5V400h81V359.59Zm-40.5-39v39h40.5v-39Zm-80,0v39h40v-39Zm-37.5-162v42H320v-42Zm37.5,42v40.5h40V200.6Zm120.45,159V400h81V359.59Zm-40.5-39v39h40.5v-39Zm-80,0v39h40v-39Zm-37.5-162v42H320v-42Zm37.5,42v40.5h40V200.6Zm120.45,159V400h81V359.59Zm-40.5-39v39h40.5v-39Zm-80,0v39h40v-39Zm-37.5-162v42H320v-42Zm37.5,42v40.5h40V200.6Zm120.45,159V400h81V359.59Zm-40.5-39v39h40.5v-39Zm-80,0v39h40v-39Zm-37.5-162v42H320v-42Zm37.5,42v40.5h40V200.6Zm0,120v39h40v-39Zm-37.5-162v42H320v-42Zm37.5,42v40.5h40V200.6Zm0,120v39h40v-39Zm-37.5-162v42H320v-42Zm37.5,42v40.5h40V200.6Zm0,120v39h40v-39Zm-37.5-162v42H320v-42Zm37.5,42v40.5h40V200.6Z" fill="#5a3d26"/><path d="M760.49 0H800v79.11h-39.51zM320.05 400h40v79.59h-40z" fill="#986c47"/><path d="M161.06 119.6v39h-81V38.61h39v80.99h42zM800 602.58v39H680.49v-79.5h39.99v40.5H800zM360.05 0v38.61h-40v40.5h-37.5V0h77.5zm240.94 38.61h42V158.6h-42zm42 281.98h77.49v39h-77.49z" fill="#ba855a"/><path d="M680.49 158.6H800v42H680.49zM800 320.59v39h-39.51v81h-40.01v-120H800zM161.06 200.6h79.49v40.5h-79.49z" fill="#7a5638"/><path d="M119.06 284.5V400h-39v-79.41h-40.5V284.5h79.5zm-39 195.09v82.49h-40.5v-40.5H0v-41.99h80.06zm160.49 0v82.49h-39.99v-40.5h-39.5v-80.99h39.5v39h39.99zM521.49 38.61v80.99H400V79.11h79.5v-40.5h41.99zM479.5 158.6h41.99v82.5H479.5z" fill="#ba855a"/><path d="M600.99 158.6h42v42h-42zm-121.49 42v158.99h-39V241.1H400v-40.5h79.5z" fill="#7a5638"/><path d="M560.99 400h40v121.58h-40zM800 241.1v43.4h-79.52v-83.9h40.01v40.5H800zm-39.51 238.49v41.99h-80V400h39.99v79.59h40.01z" fill="#ba855a"/><path d="M320.05 38.61h40V200.6h-40zM479.5 241.1h121.49v43.4H479.5z" fill="#7a5638"/><path d="M282.55 241.1v43.4h37.5v36.09h-79.5V200.6h79.5v40.5h-37.5zM479.5 440.59h81.49v39H479.5zm163.49 200.99v39h-82v-78h40v39h42z" fill="#ba855a"/><path d="M161.06 721.07v39H39.56v-79.49h40.5v40.49h81zM440.5 359.59V400H400v40.59h-39.95V400h-40v-40.41H440.5zm202.49 320.99V800h-42v-39.93h-40v-39h40v-40.49h42zM440.5 721.07V800H400v-39.93h-39.95v-79.49H400v40.49h40.5zM161.06 38.61h39.5v80.99h-39.5zm-42 119.99v82.5h-39v-40.5H0v-42h119.06zM240.55 38.61h42v80.99h-42zm0 320.98v81H119.06V400h81.5v-40.41h39.99zm119.5 161.99H400v120h-39.95z" fill="#7a5638"/><g fill="#5a3d26"><path d="M800 641.58v39h-39.51v79.49h-40.01V641.58H800z"/><path d="M760.49 721.07H800V800h-39.51zM80.06 400h39v121.58h-39zm562.93-40.41V400h-121.5v-79.41h39.5v39h82zM240.55 562.08h119.5v40.5h-119.5zm42-82.49H400v41.99H282.55zm157.95 0h39v122.99h-39zm80.99 161.99v79.49H479.5v-40.49h-39v-39h80.99z"/></g><g fill="#986c47"><path d="M240.55 0v38.61h-79.49v40.5h-42v-40.5h-39V0h160.49zm-79.49 760.07h39.5V800h-39.5zm399.93-79.49h40v40.49h-40zm82-521.98h37.5v42h-37.5zm-442.43 0v42h-39.5v83.9h-42V158.6h81.5zm-81.5 161.99h42v39h-42zM282.55 79.11h37.5v40.49h-37.5zm397.94 562.47h39.99v39h-39.99zm-200.99-79.5h41.99v79.5H479.5zM282.55 320.59h37.5V400h-37.5zm-163.49 120h42v80.99h-42zm280.94 39h40.5v82.49H400z"/><path d="M642.99 200.6v83.9h-42v-43.4h-79.5v-82.5H440.5v-39h160.49v39h-40v42h82zM161.06 562.08v40.5h-42v39h-39v-39h-40.5v39H0v-120h39.56v40.5h121.5zM400 641.58v39h-79.95v-78h40v39H400zM800 119.6v39H680.49v-39h39.99V79.11h40.01v40.49H800zM0 721.07h39.56V800H0zM80.06 79.11v79.49H0v-39h39.56V79.11h40.5zm239.99 442.47v40.5h-79.5v-82.49h-39.99v-39h81.99v80.99h37.5zm280.94 238.49V800H479.5v-78.93h81.49v39h40zM479.5 0v79.11h-39v-40.5H400V0h79.5zm240.98 562.08H800v40.5h-79.52z"/><path d="M0 0h39.56v79.11H0zm800 400v79.59h-79.52v-39h40.01V400H800zM282.55 721.07V800h-42v-39.93h-39.99v-79.49h39.99v40.49h42zM680.49 0v119.6h-37.5V38.61h-121.5V0h159zM39.56 200.6h40.5v83.9h-40.5zm121.5 83.9h79.49v36.09h-79.49zM600.99 400h42v40.59h-42zm-79.5 0h39.5v40.59h-39.5z"/><path d="M521.49 400v40.59H479.5v39h-39V400h80.99zm39.5-115.5v36.09h-39.5v39H479.5V284.5h81.49zm199.5 0v36.09h-80V241.1h39.99v43.4h40.01zm-40.01 237.08v40.5h-77.49v-82.49h37.5v41.99h39.99zM360.05 38.61H400v40.5h-39.95zm-77.5 80.99v39h-81.99V79.11h39.99v40.49h42z"/><path d="M360.05 79.11H400v79.49h-39.95z"/><path d="M400 158.6h40.5v42H400z"/><path d="M360.05 200.6H400v40.5h-39.95z"/><path d="M400 241.1h40.5v79.49H400zm-39.95 0v79.49h-40V284.5h-37.5v-43.4h77.5zM80.06 359.59V400H0V284.5h39.56v75.09h40.5zm600.43 242.99v39h-79.5v-79.5h42v40.5h37.5zm-119.5-122.99v82.49h-39.5v-40.5H479.5v-41.99h81.49zM119.06 641.58h81.5v39h-81.5zm163.49 39h37.5v40.49h-37.5zm477.94 79.49V800h-80v-78.93h39.99v39h40.01z"/></g><path d="M320 521.59h40v40.5h-40z" fill="#878787"/><path d="M440.5 158.59h39v42h-39zm319.99 522v40.49H800v-40.5l-39.51.01z" fill="#6c6c6c"/><path d="M161 562.09h39.5v40.5H161zm119 41h39.5v40.5H280zM200.56 38.6v40.5h40V38.61l-40-.01zm559.93 161.99v40.5H800V200.6l-39.51-.01zM440 759.09h39.5v40.5H440z" fill="#878787"/></svg>