<svg xmlns="http://www.w3.org/2000/svg" width="1000" height="996" xmlns:v="https://vecta.io/nano"><style><![CDATA[.B{fill:#5b422a}.C{fill:#956b48}.D{fill:#755337}.E{fill:#b9825d}.F{fill:#5da932}.G{fill:#7ab550}.H{fill:#57574f}.I{fill:#94cc5c}]]></style><path d="M0 0h62.467 125.047 62.528 187.402 62.541 62.358H687.51h62.402 125.107 62.468 61.659c.553.982.726 1.529.804 2.683.81 11.993.09 24.523.08 36.563-.01 5.702.79 16.549-.206 21.771-.111.584-.369 1.013-.664 1.517.549.97.714 1.499.79 2.641.82 12.287.08 25.112.07 37.447 0 5.535.81 15.524-.15 20.636-.123.65-.397 1.146-.715 1.714.556 1.006.72 1.557.796 2.736.789 12.312.089 25.126.079 37.482-.01 5.667.8 15.542-.206 20.814-.111.582-.369 1.008-.664 1.51.548.972.715 1.506.791 2.65.799 11.998.089 24.52.079 36.564-.01 5.755.79 16.487-.203 21.776-.11.589-.365 1.027-.656 1.539.546.962.705 1.479.78 2.614.809 12.291.079 25.11.069 37.447 0 5.526.82 15.537-.151 20.637-.123.651-.399 1.146-.719 1.716.56 1.005.724 1.554.801 2.733.399 6.155.619 56.077-.252 58.653-.166.492-.284.642-.553 1.124.554.982.726 1.527.804 2.681.83 12.281.08 25.115.07 37.445 0 5.52.82 15.542-.151 20.636-.125.655-.402 1.155-.723 1.729.553.982.726 1.53.804 2.684.41 6.076.6 56.157-.251 58.689-.165.493-.283.643-.553 1.125.554.981.726 1.527.804 2.68.41 6.148.63 56.051-.248 58.695-.165.499-.28.647-.549 1.136.552.976.72 1.514.797 2.662.41 6.144.62 56.071-.249 58.695-.165.498-.281.646-.55 1.134.552.977.722 1.516.799 2.666.41 6.18.64 56.012-.247 58.697-.165.501-.279.648-.548 1.14.548.979.721 1.526.794 2.673.561 8.726.471 118.97-.243 121.179-.148.462-.309.701-.548 1.146.55.971.716 1.502.792 2.646.82 12.286.08 25.113.07 37.446 0 5.524.82 15.54-.151 20.637-.125.656-.402 1.157-.723 1.731.554.982.726 1.528.804 2.682.41 6.105.61 56.114-.25 58.692-.165.495-.282.644-.552 1.13.554.978.725 1.519.802 2.671.77 11.434.09 23.38.08 34.859-.01 5.39.8 14.264-.161 19.319-.125.655-.402 1.154-.723 1.728H875.014h-62.489-62.523-62.484-62.519-62.481-62.521-62.485-125.014-62.561H0v-58.543-62.452-62.579-62.439-62.58-62.44-62.488-125.028-62.483-62.529-62.458-124.95-62.548V0z" class="C"/><path d="M437.514 312.353c20.831.351 41.67-.091 62.501.127l.001 62.473-62.547.028.045-62.628z" class="D"/><path d="M312.5 624.954l62.491.009.027 62.488-62.511.005-.007-62.502z" class="E"/><path d="M375.035 312.427l-.051 62.54-62.494.002.015-62.498 62.53-.044z" class="D"/><path d="M187.478 624.912l62.522-.043-.076 62.63c-7.189-.322-14.513-.076-21.715-.077l-40.699.002-.032-62.512z" class="B"/><path d="M437.469 374.981l62.547-.028-.008 62.531-62.514-.056-.025-62.447zm.009 187.427l62.498.096.026 62.435-62.488.018-.036-62.549z" class="E"/><path d="M437.506 249.981l62.475-.009 62.531.019.009 43.063c.008 5.798.881 13.975-.28 19.428-20.699-.447-41.516-.008-62.226-.002-20.831-.218-41.67.224-62.501-.127l-.008-62.372z" class="G"/><g class="B"><path d="M437.506 249.981l62.475-.009.034 62.508c-20.831-.218-41.67.224-62.501-.127l-.008-62.372z"/><path d="M500.015 312.48l62.226.002.225.093.031 62.413-.009 125-62.479-.008-.001-62.496.008-62.531-.001-62.473z"/></g><path d="M312.51 437.473l124.975-.05-.006 124.965-62.483.041.027-62.423-62.562.022.014 124.952-40.626.027c-7.179.002-14.696.414-21.849-.138-20.822.341-41.695.086-62.522.043l.029-124.934 62.51-.02-.028-62.502 62.521.017z" class="D"/><path d="M187.5 249.976l62.493.022.003 62.483 62.509-.01-.015 62.498.02 62.504-62.521-.017.028 62.502-62.51.02-.029 124.934.032 62.512-62.494.077.033-62.565L0 624.967v-62.488-125.028-62.483-62.529l62.475.024 62.548.029-.047-41.55c-.007-6.824-.611-14.227.251-20.964l62.273-.002z" class="C"/><path d="M125.05 374.824l41.864.144c6.86.049 13.761.557 20.612.307l-.008 62.144-62.606.026c.373-20.852.096-41.763.138-62.621z" class="H"/><path d="M0 437.451l62.519-.044-.005 125.015L0 562.479V437.451z" class="D"/><path d="M62.475 312.463l62.548.029.027 62.332-.138 62.621-62.393-.038L0 437.451v-62.483-62.529l62.475.024z" class="B"/><path d="M62.475 312.463l-.01 62.557c-7.099-.388-14.344-.078-21.466-.075L0 374.968v-62.529l62.475.024z" class="D"/><path d="M0 374.968l40.999-.023c7.122-.003 14.367-.313 21.466.075l.054 62.387L0 437.451v-62.483z" class="C"/><path d="M187.5 249.976l62.493.022.003 62.483 62.509-.01-.015 62.498.02 62.504-62.521-.017-.002-62.441c-20.676-.423-41.532-.304-62.211.047l-.25.213c-6.851.25-13.752-.258-20.612-.307l-41.864-.144-.027-62.332-.047-41.55c-.007-6.824-.611-14.227.251-20.964l62.273-.002z" class="B"/><path d="M125.023 312.492l62.44-.005.003 42.253c-.013 6.042-.942 14.694.31 20.322l-.25.213c-6.851.25-13.752-.258-20.612-.307l-41.864-.144-.027-62.332z" class="D"/><path d="M0 0h62.467 125.047 62.528 187.402 62.541 62.358H687.51l-.012 62.436-.012 62.58.008 40.904c.004 7.09-.313 14.385.098 21.457l-.107.331.028 62.278-62.459.005c-20.825-.321-41.711-.002-62.542 0l-62.531-.019-62.475.009-62.504.012.033 62.434-62.53.044-62.509.01-.003-62.483-62.493-.022-62.273.002c-.862 6.737-.258 14.14-.251 20.964l.047 41.55c-20.817-.401-41.722-.025-62.548-.029L0 312.439v-62.458-124.95-62.548V0z" class="G"/><path d="M437.499 62.493l62.424.008c.434 20.693-.226 41.412.065 62.106l.017 62.936-.024 62.429-62.475.009-.005-62.49-.03-62.468.028-62.53z" class="F"/><path d="M437.501 187.491c20.664.012 41.915.796 62.504.052l-.024 62.429-62.475.009-.005-62.49z" class="G"/><path d="M500.005 187.543q31.253-.238 62.506-.098l62.388.043 42.6-.003c6.399-.01 13.736-.756 19.986.223l.028 62.278-62.459.005c-20.825-.321-41.711-.002-62.542 0l-62.531-.019.024-62.429z" class="B"/><path d="M500.005 187.543q31.253-.238 62.506-.098l.001 62.546-62.531-.019.024-62.429zM562.343 0H687.51l-.012 62.436-.012 62.58.008 40.904c.004 7.09-.313 14.385.098 21.457l-.107.331c-6.25-.979-13.587-.233-19.986-.223l-42.6.003c.784-20.697.063-41.73.052-62.46l-62.393-.065c-.978-14.094-.225-28.751-.226-42.891L562.343 0z" class="F"/><path d="M187.514 0h62.528l-.045 62.494c20.749-.012 41.775-.755 62.496.026l-.004 62.41 62.379.081 62.603.012.03 62.468.005 62.49-62.504.012.033 62.434-62.53.044-62.509.01-.003-62.483-62.493-.022.069-62.503c-.596-20.757-.047-41.709-.056-62.484l-.032-62.521L187.514 0z" class="G"/><path d="M187.569 187.473l62.416.012.008 62.513-62.493-.022.069-62.503z" class="C"/><g class="B"><path d="M312.444 249.957l62.558.036.033 62.434-62.53.044-.061-62.514z"/><path d="M374.973 187.435l62.528.056.005 62.49-62.504.012-.029-62.558z"/></g><path d="M374.868 125.011l62.603.012.03 62.468c-20.824-.322-41.698.016-62.528-.056l-62.458.048-.026-62.553 62.379.081z" class="I"/><path d="M187.514 0h62.528l-.045 62.494c20.749-.012 41.775-.755 62.496.026l-.004 62.41.026 62.553-62.53.002-62.416-.012c-.596-20.757-.047-41.709-.056-62.484l-.032-62.521L187.514 0z" class="F"/><path d="M187.513 124.989l62.474-.022-.002 62.518-62.416-.012c-.596-20.757-.047-41.709-.056-62.484z" class="B"/><path d="M187.481 62.468l62.516.026-.01 62.473-62.474.022-.032-62.521z" class="I"/><path d="M187.514 0h62.528l-.045 62.494-62.516-.026L187.514 0z" class="F"/><path d="M0 0h62.467 125.047l-.033 62.468.032 62.521.056 62.484-.069 62.503-62.273.002c-.862 6.737-.258 14.14-.251 20.964l.047 41.55c-20.817-.401-41.722-.025-62.548-.029L0 312.439v-62.458-124.95-62.548V0z" class="G"/><path d="M0 62.483l62.465-.001.005 62.513-62.47.036V62.483zm125.022-.039l62.459.024.032 62.521.056 62.484-62.541-.02-.033-62.447.027-62.562z" class="F"/><path d="M0 125.031l62.471-.036 62.524.011.033 62.447 62.541.02-.069 62.503-62.273.002c-.862 6.737-.258 14.14-.251 20.964l.047 41.55c-20.817-.401-41.722-.025-62.548-.029L0 312.439v-62.458-124.95z" class="G"/><path d="M0 249.981l62.522-.021-.048 62.503L0 312.439v-62.458z" class="B"/><path d="M62.471 124.995l62.524.011.033 62.447c-.145 20.765.653 41.706-.108 62.44-20.752.5-41.633.077-62.398.067l-.052-124.965z" class="I"/><path d="M125.028 187.453l62.541.02-.069 62.503-62.273.002c-.862 6.737-.258 14.14-.251 20.964l.047 41.55c-20.817-.401-41.722-.025-62.548-.029l.048-62.503 62.398-.067c.761-20.734-.037-41.675.108-62.44zM687.51 0h62.402 125.107 62.468 61.659c.553.982.726 1.529.804 2.683.81 11.993.09 24.523.08 36.563-.01 5.702.79 16.549-.206 21.771-.111.584-.369 1.013-.664 1.517.549.97.714 1.499.79 2.641.82 12.287.08 25.112.07 37.447 0 5.535.81 15.524-.15 20.636-.123.65-.397 1.146-.715 1.714.556 1.006.72 1.557.796 2.736.789 12.312.089 25.126.079 37.482-.01 5.667.8 15.542-.206 20.814-.111.582-.369 1.008-.664 1.51.548.972.715 1.506.791 2.65.799 11.998.089 24.52.079 36.564-.01 5.755.79 16.487-.203 21.776-.11.589-.365 1.027-.656 1.539.546.962.705 1.479.78 2.614.809 12.291.079 25.11.069 37.447 0 5.526.82 15.537-.151 20.637-.123.651-.399 1.146-.719 1.716.56 1.005.724 1.554.801 2.733.399 6.155.619 56.077-.252 58.653-.166.492-.284.642-.553 1.124.554.982.726 1.527.804 2.681.83 12.281.08 25.115.07 37.445 0 5.52.82 15.542-.151 20.636-.125.655-.402 1.155-.723 1.729.553.982.726 1.53.804 2.684.41 6.076.6 56.157-.251 58.689-.165.493-.283.643-.553 1.125l-61.614.018-62.535.011.026 62.425-62.526.034.018 62.488-62.485.065-62.534-.079c-8.166-.416-16.238-.071-24.403-.015l-38.063.037-62.485.024-.057-124.976.009-125-.031-62.413-.225-.093c1.161-5.453.288-13.63.28-19.428l-.009-43.063h62.542l62.459-.005-.028-62.278.107-.331c-.411-7.072-.094-14.367-.098-21.457l-.008-40.904.012-62.58L687.51 0z" class="G"/><path d="M812.508 62.502l43.152.007c6.08-.007 13.457-.809 19.407.235q-.195 31.114-.05 62.228l-62.503.046-.006-62.516zm-125.022 62.514l42.725-.042c6.254-.008 13.692-.833 19.751.256l.045 40.961c-.004 7.028.267 14.182-.098 21.196-7.851.639-16.167.115-24.062.116-12.734.001-25.529.259-38.255-.126-.411-7.072-.094-14.367-.098-21.457l-.008-40.904zM687.51 0h62.402l.052 62.49c-20.76.008-41.726.575-62.466-.054L687.51 0zm187.509 0h62.468l.059 62.518c-20.656-.635-41.576-.15-62.253.04-1.104-6.243-.322-13.957-.319-20.325L875.019 0z" class="I"/><path d="M812.514 125.018l62.503-.046-.005 62.492-62.495-.012c-.553-20.747-.01-41.67-.003-62.434z" class="B"/><path d="M749.996 187.7c5.369-.666 60.516-.868 62.231.266.068.045.121.109.182.163l.155 61.79-62.548.058-.02-62.277z" class="F"/><path d="M812.517 187.452l62.495.012-.012 62.514-62.436-.059c-.355-20.583-.019-41.201-.155-61.79l.108-.677z" class="C"/><path d="M749.993 62.519l62.515-.017.006 62.516c-20.807-.359-41.657.492-62.459-.119-.502-20.744-.07-41.623-.062-62.38zM937.487 0h61.659c.553.982.726 1.529.804 2.683.81 11.993.09 24.523.08 36.563-.01 5.702.79 16.549-.206 21.771-.111.584-.369 1.013-.664 1.517l-61.614-.017c-.604-20.768-.06-41.73-.059-62.517z" class="F"/><path d="M750.016 249.977l62.548-.058c-.189 20.793.691 41.799-.103 62.552l-62.478-.01-62.464-.058-.006-62.417 62.503-.009z" class="B"/><path d="M875.293 62.557c20.677-.19 41.597-.674 62.253-.04l61.614.017c.549.97.714 1.499.79 2.641.82 12.287.08 25.112.07 37.447 0 5.535.81 15.524-.15 20.636-.123.65-.397 1.146-.715 1.714.556 1.006.72 1.557.796 2.736.789 12.312.089 25.126.079 37.482-.01 5.667.8 15.542-.206 20.814-.111.582-.369 1.008-.664 1.51.548.972.715 1.506.791 2.65.799 11.998.089 24.52.079 36.564-.01 5.755.79 16.487-.203 21.776-.11.589-.365 1.027-.656 1.539.546.962.705 1.479.78 2.614.809 12.291.079 25.11.069 37.447 0 5.526.82 15.537-.151 20.637-.123.651-.399 1.146-.719 1.716l-61.645-.043c-20.763.532-41.683.032-62.46.025-.484-20.772-.051-41.676-.045-62.461l.012-62.514.005-62.492q-.145-31.114.05-62.228l.226-.187z" class="G"/><path d="M875.293 62.557c20.677-.19 41.597-.674 62.253-.04l-.061 62.482c-20.812.005-41.66.242-62.468-.027q-.145-31.114.05-62.228l.226-.187z" class="F"/><path d="M875.012 187.464l62.479.02.002 62.459 40.996.125c6.845.002 13.854.323 20.682-.025.546.962.705 1.479.78 2.614.809 12.291.079 25.11.069 37.447 0 5.526.82 15.537-.151 20.637-.123.651-.399 1.146-.719 1.716l-61.645-.043c-20.763.532-41.683.032-62.46.025-.484-20.772-.051-41.676-.045-62.461l.012-62.514z" class="B"/><path d="M937.493 249.943l40.996.125c6.845.002 13.854.323 20.682-.025.546.962.705 1.479.78 2.614.809 12.291.079 25.11.069 37.447 0 5.526.82 15.537-.151 20.637-.123.651-.399 1.146-.719 1.716l-61.645-.043-.012-62.471z" class="F"/><path d="M812.564 249.919l62.436.059.045 62.461 62.46-.025 61.645.043c.56 1.005.724 1.554.801 2.733.399 6.155.619 56.077-.252 58.653-.166.492-.284.642-.553 1.124.554.982.726 1.527.804 2.681.83 12.281.08 25.115.07 37.445 0 5.52.82 15.542-.151 20.636-.125.655-.402 1.155-.723 1.729.553.982.726 1.53.804 2.684.41 6.076.6 56.157-.251 58.689-.165.493-.283.643-.553 1.125l-61.614.018-62.535.011-62.5-.011.011-62.449c-20.767-.616-41.738-.082-62.524-.07q-31.209-.242-62.418 0c.416-20.791-.052-41.695-.06-62.498l.013-62.554 62.464.058 62.478.01c.794-20.753-.086-41.759.103-62.552z" class="D"/><path d="M937.505 312.414l.027 62.458c-20.818.364-41.674.093-62.496.08-.445-20.797-.034-41.704.009-62.513l62.46-.025z" class="C"/><g class="B"><path d="M937.505 312.414l61.645.043c.56 1.005.724 1.554.801 2.733.399 6.155.619 56.077-.252 58.653-.166.492-.284.642-.553 1.124l-61.614-.095c-.47-20.774-.026-41.672-.027-62.458z"/><path d="M875.036 374.952l62.496-.08 61.614.095c.554.982.726 1.527.804 2.681.83 12.281.08 25.115.07 37.445 0 5.52.82 15.542-.151 20.636-.125.655-.402 1.155-.723 1.729l-61.415-.004-.343-.108c-7.533.362-15.177.117-22.722.121l-39.67-.072.04-62.443z"/></g><path d="M937.532 374.872l61.614.095c.554.982.726 1.527.804 2.681.83 12.281.08 25.115.07 37.445 0 5.52.82 15.542-.151 20.636-.125.655-.402 1.155-.723 1.729l-61.415-.004-.343-.108c.446-7.186.148-14.557.153-21.761l-.009-40.713z" class="D"/><path d="M937.388 437.346l.343.108 61.415.004c.553.982.726 1.53.804 2.684.41 6.076.6 56.157-.251 58.689-.165.493-.283.643-.553 1.125l-61.614.018-62.535.011-62.5-.011.011-62.449c6.904-.607 14.315-.09 21.269-.082l41.219-.048 39.67.072c7.545-.004 15.189.241 22.722-.121z" class="C"/><path d="M937.731 437.454l61.415.004c.553.982.726 1.53.804 2.684.41 6.076.6 56.157-.251 58.689-.165.493-.283.643-.553 1.125l-61.614.018-.05-41.361c-.007-6.934-.569-14.292.249-21.159z" class="E"/><path d="M812.508 437.525c6.904-.607 14.315-.09 21.269-.082l41.219-.048.001 62.59-62.5-.011.011-62.449z" class="B"/><path d="M687.519 312.403l62.464.058 62.478.01.047 62.472v62.582c-20.767-.616-41.738-.082-62.524-.07q-31.209-.242-62.418 0c.416-20.791-.052-41.695-.06-62.498l.013-62.554z" class="C"/><path d="M687.506 374.957l62.509-.029-.031 62.527q-31.209-.242-62.418 0c.416-20.791-.052-41.695-.06-62.498z" class="H"/><path d="M749.983 312.461l62.478.01.047 62.472-62.516.006-.009-62.488z" class="E"/><path d="M562.512 249.991h62.542l62.459-.005.006 62.417-.013 62.554.06 62.498q31.209-.242 62.418 0l62.524.07-.011 62.449 62.5.011.026 62.425-62.526.034.018 62.488-62.485.065-62.534-.079c-8.166-.416-16.238-.071-24.403-.015l-38.063.037-62.485.024-.057-124.976.009-125-.031-62.413-.225-.093c1.161-5.453.288-13.63.28-19.428l-.009-43.063z" class="D"/><g class="C"><path d="M625.054 249.991l62.459-.005.006 62.417-62.496.042.031-62.454z"/><path d="M562.466 312.575c20.814-.573 41.731-.14 62.557-.13l-.03 62.458-62.496.085-.031-62.413z"/></g><path d="M562.512 249.991h62.542l-.031 62.454c-20.826-.01-41.743-.443-62.557.13l-.225-.093c1.161-5.453.288-13.63.28-19.428l-.009-43.063z" class="D"/><path d="M624.991 374.965l62.515-.008.06 62.498-62.539.013-.036-62.503z" class="B"/><path d="M687.566 437.455q31.209-.242 62.418 0l62.524.07-.011 62.449 62.5.011.026 62.425-62.526.034.018 62.488-62.485.065-62.534-.079-.029-41.266c-.003-6.911-.589-14.375.263-21.203l-.332-.104c-20.68.745-41.663.105-62.371.099l-.03-62.477.03-62.499 62.539-.013z" class="C"/><path d="M624.997 499.967l62.502.023.009 40.506c.005 7.244.311 14.619-.11 21.849-20.68.745-41.663.105-62.371.099l-.03-62.477z" class="E"/><path d="M687.73 562.449l62.279-.002.021 62.55-62.534-.079-.029-41.266c-.003-6.911-.589-14.375.263-21.203z" class="B"/><path d="M687.566 437.455q31.209-.242 62.418 0l.019 62.51-62.491-.008.054-62.502z" class="D"/><path d="M749.984 437.455l62.524.07-.011 62.449-.005 62.452-62.476-.042-.013-62.419-.019-62.51z" class="E"/><path d="M937.532 499.974l61.614-.018c.554.981.726 1.527.804 2.68.41 6.148.63 56.051-.248 58.695-.165.499-.28.647-.549 1.136.552.976.72 1.514.797 2.662.41 6.144.62 56.071-.249 58.695-.165.498-.281.646-.55 1.134.552.977.722 1.516.799 2.666.41 6.18.64 56.012-.247 58.697-.165.501-.279.648-.548 1.14.548.979.721 1.526.794 2.673.561 8.726.471 118.97-.243 121.179-.148.462-.309.701-.548 1.146.55.971.716 1.502.792 2.646.82 12.286.08 25.113.07 37.446 0 5.524.82 15.54-.151 20.637-.125.656-.402 1.157-.723 1.731.554.982.726 1.528.804 2.682.41 6.105.61 56.114-.25 58.692-.165.495-.282.644-.552 1.13.554.978.725 1.519.802 2.671.77 11.434.09 23.38.08 34.859-.01 5.39.8 14.264-.161 19.319-.125.655-.402 1.154-.723 1.728H875.014h-62.489-62.523-62.484-62.519-62.481-62.521-62.485-125.014-62.561H0v-58.543-62.452-62.579-62.439-62.58-62.44l125.049-.031-.033 62.565 62.494-.077 40.699-.002c7.202.001 14.526-.245 21.715.077l.115.259c4.046-1.23 14.608-.37 19.238-.365l43.23.063 62.511-.005-.027-62.488 62.523-.006 62.488-.018 62.543.025 62.485-.024 38.063-.037c8.165-.056 16.237-.401 24.403.015l62.534.079 62.485-.065-.018-62.488 62.526-.034-.026-62.425 62.535-.011z" class="D"/><path d="M562.49 812.455l62.511-.004.023 62.464-62.505.064c-.544-20.781-.031-41.727-.029-62.524zM312.507 687.456l62.511-.005-.018 62.482-62.513.015.02-62.492z" class="C"/><path d="M250.039 687.758c4.046-1.23 14.608-.37 19.238-.365l43.23.063-.02 62.492-.002 62.506-62.51.033.018-62.358.046-62.371z" class="E"/><path d="M500.067 687.395l62.304.041c.64 4.215.236 9.064.225 13.353l-.057 24.717-.055 86.96-62.46.013.043-125.084zM374.986 874.979h62.497l.006 62.465.023 58.556H312.498l.006-58.556q31.244.258 62.488-.036l-.006-62.429z" class="B"/><path d="M625.03 624.94l38.063-.037c8.165-.056 16.237-.401 24.403.015l.007 62.532c-20.738.585-41.725.491-62.468.072-20.811-.694-41.833-.085-62.664-.086l-62.304-.041c-.591-20.748-.071-41.691-.065-62.456l62.543.025 62.485-.024z" class="E"/><path d="M625.03 624.94l38.063-.037c8.165-.056 16.237-.401 24.403.015l.007 62.532c-20.738.585-41.725.491-62.468.072l-.005-62.582z" class="H"/><path d="M437.474 812.411l62.53.081-.008 62.455 62.523.032-.014 62.514.013 58.507h-62.521-62.485l-.023-58.556-.006-62.465-.009-62.568z" class="C"/><path d="M437.489 937.444l62.523-.017-.015 58.573h-62.485l-.023-58.556z" class="D"/><path d="M500.012 937.427l62.493.066.013 58.507h-62.521l.015-58.573z" class="E"/><path d="M0 624.967l125.049-.031-.033 62.565 62.494-.077 40.699-.002c7.202.001 14.526-.245 21.715.077l.115.259-.046 62.371-.018 62.358 62.51-.033 62.473.012.02 62.435-62.476.016.002 62.527-.006 58.556h-62.561H0v-58.543-62.452-62.579-62.439-62.58-62.44z" class="D"/><path d="M187.827 750.15c12.844-.39 25.725-.159 38.576-.23 7.752-.043 15.914-.819 23.59.209l-.018 62.358-62.489-.057c1.185-6.767.496-14.553.489-21.449l-.148-40.831z" class="H"/><path d="M0 875.005l62.382-.035c.821 20.749.056 41.722.132 62.501L0 937.457v-62.452z" class="E"/><path d="M62.382 874.97l62.632.005.004 62.489-62.503.007c-.076-20.779.689-41.752-.132-62.501zM0 687.407l62.506.052.013 62.497L0 749.987v-62.58z" class="C"/><path d="M250.001 874.91l62.501.007.002 62.527-.006 58.556h-62.561l.132-58.558c-.681-20.751-.069-41.758-.068-62.532z" class="E"/><path d="M250.069 937.442l62.435.002-.006 58.556h-62.561l.132-58.558z" class="H"/><path d="M0 749.987l62.519-.031 62.495.093.011 62.416-62.514.037c-20.71-.774-41.762-.06-62.51-.076v-62.439z" class="C"/><path d="M0 749.987l62.519-.031-.008 62.546c-20.71-.774-41.762-.06-62.51-.076v-62.439z" class="B"/><path d="M249.975 812.487l62.51-.033 62.473.012.02 62.435-62.476.016c-20.796.373-41.698.165-62.501-.007l-62.515.027V812.43l62.489.057z" class="C"/><path d="M937.532 499.974l61.614-.018c.554.981.726 1.527.804 2.68.41 6.148.63 56.051-.248 58.695-.165.499-.28.647-.549 1.136.552.976.72 1.514.797 2.662.41 6.144.62 56.071-.249 58.695-.165.498-.281.646-.55 1.134.552.977.722 1.516.799 2.666.41 6.18.64 56.012-.247 58.697-.165.501-.279.648-.548 1.14.548.979.721 1.526.794 2.673.561 8.726.471 118.97-.243 121.179-.148.462-.309.701-.548 1.146.55.971.716 1.502.792 2.646.82 12.286.08 25.113.07 37.446 0 5.524.82 15.54-.151 20.637-.125.656-.402 1.157-.723 1.731.554.982.726 1.528.804 2.682.41 6.105.61 56.114-.25 58.692-.165.495-.282.644-.552 1.13.554.978.725 1.519.802 2.671.77 11.434.09 23.38.08 34.859-.01 5.39.8 14.264-.161 19.319-.125.655-.402 1.154-.723 1.728H875.014h-62.489-62.523-62.484-62.519-62.481l-.013-58.507.014-62.514 62.505-.064-.023-62.464 62.496.043-.02-62.571.026-62.473-.007-62.532 62.534.079 62.485-.065-.018-62.488 62.526-.034-.026-62.425 62.535-.011z" class="D"/><path d="M937.491 812.452l61.667.007c.55.971.716 1.502.792 2.646.82 12.286.08 25.113.07 37.446 0 5.524.82 15.54-.151 20.637-.125.656-.402 1.157-.723 1.731l-61.622.076-.033-62.543z" class="C"/><path d="M812.518 874.978l62.446-.041.062 62.498c-20.801.001-41.723.44-62.514-.046l.006-62.411z" class="B"/><path d="M875.004 812.503l-.04 62.434-62.446.041c-.342-20.8-.262-41.721.016-62.524l62.47.049z" class="E"/><path d="M875.022 937.408l124.126.015c.554.978.725 1.519.802 2.671.77 11.434.09 23.38.08 34.859-.01 5.39.8 14.264-.161 19.319-.125.655-.402 1.154-.723 1.728H875.014l.008-58.592z" class="C"/><path d="M937.538 687.446l61.617.015c.548.979.721 1.526.794 2.673.561 8.726.471 118.97-.243 121.179-.148.462-.309.701-.548 1.146-20.493.564-41.16.121-61.667-.007l.032-62.514-62.209-.01c-1.185-4.268-.367-14.264-.362-19.048l.065-43.455 62.521.021z" class="E"/><path d="M687.496 624.918l62.534.079-.022 62.397 125.009.031-.065 43.455c-.005 4.784-.823 14.78.362 19.048l-.306.082-.004 62.493c-20.803-.327-41.661-.042-62.47-.049l-62.494.036-62.543.004-.02-62.571.026-62.473-.007-62.532z" class="C"/><path d="M687.503 687.45l62.496-.013.023 62.491-62.545-.005.026-62.473z" class="E"/><path d="M749.996 749.967l125.012.043-.004 62.493c-20.803-.327-41.661-.042-62.47-.049l-62.494.036-.044-62.523z" class="B"/><path d="M937.532 499.974l61.614-.018c.554.981.726 1.527.804 2.68.41 6.148.63 56.051-.248 58.695-.165.499-.28.647-.549 1.136.552.976.72 1.514.797 2.662.41 6.144.62 56.071-.249 58.695-.165.498-.281.646-.55 1.134.552.977.722 1.516.799 2.666.41 6.18.64 56.012-.247 58.697-.165.501-.279.648-.548 1.14l-61.617-.015-62.521-.021-125.009-.031.022-62.397 62.485-.065-.018-62.488 62.526-.034-.026-62.425 62.535-.011z" class="D"/><path d="M875.001 625.012l62.52-.03.017 62.464-62.521-.021-.016-62.413z" class="C"/><path d="M937.521 624.982l61.63-.024c.552.977.722 1.516.799 2.666.41 6.18.64 56.012-.247 58.697-.165.501-.279.648-.548 1.14l-61.617-.015-.017-62.464z" class="D"/><path d="M937.481 562.46l61.672.007c.552.976.72 1.514.797 2.662.41 6.144.62 56.071-.249 58.695-.165.498-.281.646-.55 1.134-20.523.312-41.102.017-61.63.024l-.04-62.522z" class="E"/><path d="M750.04 812.49l62.494-.036-.016 62.524-.006 62.411.013 58.611h-62.523-62.484-62.519-62.481l-.013-58.507.014-62.514 62.505-.064-.023-62.464 62.496.043 62.543-.004z" class="D"/><path d="M625 937.48l62.498.03.02 58.49h-62.519l.001-58.52z" class="E"/><path d="M562.519 874.979l62.505-.064L625 937.48l-.001 58.52h-62.481l-.013-58.507.014-62.514z" class="B"/><path d="M750 874.941l62.518.037-.006 62.411.013 58.611h-62.523L750 874.941z" class="C"/><path d="M687.497 812.494l62.543-.004-.045 62.473q-62.485.328-124.971-.048l-.023-62.464 62.496.043z" class="B"/></svg>