<svg version="1.1" xmlns="http://www.w3.org/2000/svg" viewBox="0 0 212.039622489551 212.03962248955085" width="212.039622489551" height="212.03962248955085">
  <!-- svg-source:excalidraw -->
  
  <defs>
    <style class="style-fonts">
      
    </style>
    
  </defs>
  <rect x="0" y="0" width="212.039622489551" height="212.03962248955085" fill="#ffffff00"></rect><g stroke-linecap="round" transform="translate(10 10) rotate(0 96.0198112447755 96.01981124477543)"><path d="M32 0 C78.23 5.72, 128.79 3.15, 160.04 0 C186.73 -2.64, 194.29 9.27, 192.04 32 C185.28 70.89, 191.01 122.22, 192.04 160.04 C190.47 186.84, 185.52 190.7, 160.04 192.04 C131.86 190.3, 108.8 195.51, 32 192.04 C10.55 195.19, 2.79 186.54, 0 160.04 C7.56 121, 2.55 76.5, 0 32 C1.05 6.88, 10.44 -5.48, 32 0" stroke="none" stroke-width="0" fill="#0a0520"></path><path d="M32 0 C79.09 -0.82, 133.98 0.85, 160.04 0 M32 0 C77.91 2.2, 124.12 1.64, 160.04 0 M160.04 0 C179.61 2.57, 193.57 9.56, 192.04 32 M160.04 0 C180.19 -0.11, 196.1 6.66, 192.04 32 M192.04 32 C195.86 62.96, 195.1 98.87, 192.04 160.04 M192.04 32 C191.99 84.69, 190.93 132.78, 192.04 160.04 M192.04 160.04 C194.22 180.64, 184.19 195.09, 160.04 192.04 M192.04 160.04 C194.55 180.96, 181.92 189.66, 160.04 192.04 M160.04 192.04 C116.28 191.57, 76.28 188.03, 32 192.04 M160.04 192.04 C134.86 190.75, 107.27 191.27, 32 192.04 M32 192.04 C10.67 194.01, 1.15 182.56, 0 160.04 M32 192.04 C10.11 194.92, 1.61 185.84, 0 160.04 M0 160.04 C-0.25 134.77, -1.12 107.37, 0 32 M0 160.04 C-0.05 109.9, 0.18 56.03, 0 32 M0 32 C-2.01 8.2, 12.62 -3.27, 32 0 M0 32 C-0.98 13.93, 11.68 2.33, 32 0" stroke="#1e1e1e" stroke-width="2" fill="none"></path></g><g stroke-linecap="round" transform="translate(33.300876823357385 41.30018704185483) rotate(0 73.77369473255817 11.980341183711914)"><path d="M5.99 0 C56.48 0, 106.96 0, 141.56 0 C145.55 0, 147.55 2, 147.55 5.99 C147.55 10.2, 147.55 14.4, 147.55 17.97 C147.55 21.96, 145.55 23.96, 141.56 23.96 C112.65 23.96, 83.74 23.96, 5.99 23.96 C2 23.96, 0 21.96, 0 17.97 C0 14.9, 0 11.83, 0 5.99 C0 2, 2 0, 5.99 0" stroke="none" stroke-width="0" fill="#ffffff"></path><path d="M5.99 0 C44.94 0, 83.89 0, 141.56 0 M5.99 0 C46.97 0, 87.96 0, 141.56 0 M141.56 0 C145.55 0, 147.55 2, 147.55 5.99 M141.56 0 C145.55 0, 147.55 2, 147.55 5.99 M147.55 5.99 C147.55 8.91, 147.55 11.83, 147.55 17.97 M147.55 5.99 C147.55 9.34, 147.55 12.69, 147.55 17.97 M147.55 17.97 C147.55 21.96, 145.55 23.96, 141.56 23.96 M147.55 17.97 C147.55 21.96, 145.55 23.96, 141.56 23.96 M141.56 23.96 C100.29 23.96, 59.03 23.96, 5.99 23.96 M141.56 23.96 C107.45 23.96, 73.35 23.96, 5.99 23.96 M5.99 23.96 C2 23.96, 0 21.96, 0 17.97 M5.99 23.96 C2 23.96, 0 21.96, 0 17.97 M0 17.97 C0 13.26, 0 8.56, 0 5.99 M0 17.97 C0 13.98, 0 9.98, 0 5.99 M0 5.99 C0 2, 2 0, 5.99 0 M0 5.99 C0 2, 2 0, 5.99 0" stroke="#1e1e1e" stroke-width="1" fill="none"></path></g><g stroke-linecap="round" transform="translate(33.49888712300276 91.57426936607877) rotate(0 53.95658641086641 13.601737975369105)"><path d="M6.8 0 C33.48 0, 60.16 0, 101.11 0 C105.65 0, 107.91 2.27, 107.91 6.8 C107.91 9.55, 107.91 12.3, 107.91 20.4 C107.91 24.94, 105.65 27.2, 101.11 27.2 C71.76 27.2, 42.4 27.2, 6.8 27.2 C2.27 27.2, 0 24.94, 0 20.4 C0 17.47, 0 14.53, 0 6.8 C0 2.27, 2.27 0, 6.8 0" stroke="none" stroke-width="0" fill="#3dcbff"></path><path d="M6.8 0 C39.98 0, 73.15 0, 101.11 0 M6.8 0 C42.94 0, 79.08 0, 101.11 0 M101.11 0 C105.65 0, 107.91 2.27, 107.91 6.8 M101.11 0 C105.65 0, 107.91 2.27, 107.91 6.8 M107.91 6.8 C107.91 11.26, 107.91 15.72, 107.91 20.4 M107.91 6.8 C107.91 11.14, 107.91 15.48, 107.91 20.4 M107.91 20.4 C107.91 24.94, 105.65 27.2, 101.11 27.2 M107.91 20.4 C107.91 24.94, 105.65 27.2, 101.11 27.2 M101.11 27.2 C68.29 27.2, 35.48 27.2, 6.8 27.2 M101.11 27.2 C78.35 27.2, 55.59 27.2, 6.8 27.2 M6.8 27.2 C2.27 27.2, 0 24.94, 0 20.4 M6.8 27.2 C2.27 27.2, 0 24.94, 0 20.4 M0 20.4 C0 16.78, 0 13.16, 0 6.8 M0 20.4 C0 15.04, 0 9.67, 0 6.8 M0 6.8 C0 2.27, 2.27 0, 6.8 0 M0 6.8 C0 2.27, 2.27 0, 6.8 0" stroke="#1e1e1e" stroke-width="1" fill="none"></path></g><g stroke-linecap="round" transform="translate(35.21616449405428 143.49121727401055) rotate(0 37.47234600764102 11.25971248417298)"><path d="M5.63 0 C18.63 0, 31.63 0, 69.31 0 C73.07 0, 74.94 1.88, 74.94 5.63 C74.94 8.18, 74.94 10.72, 74.94 16.89 C74.94 20.64, 73.07 22.52, 69.31 22.52 C49.68 22.52, 30.04 22.52, 5.63 22.52 C1.88 22.52, 0 20.64, 0 16.89 C0 14.34, 0 11.78, 0 5.63 C0 1.88, 1.88 0, 5.63 0" stroke="none" stroke-width="0" fill="#333c6c"></path><path d="M5.63 0 C25.26 0, 44.89 0, 69.31 0 M5.63 0 C19.7 0, 33.77 0, 69.31 0 M69.31 0 C73.07 0, 74.94 1.88, 74.94 5.63 M69.31 0 C73.07 0, 74.94 1.88, 74.94 5.63 M74.94 5.63 C74.94 8.86, 74.94 12.1, 74.94 16.89 M74.94 5.63 C74.94 9.46, 74.94 13.29, 74.94 16.89 M74.94 16.89 C74.94 20.64, 73.07 22.52, 69.31 22.52 M74.94 16.89 C74.94 20.64, 73.07 22.52, 69.31 22.52 M69.31 22.52 C48.69 22.52, 28.06 22.52, 5.63 22.52 M69.31 22.52 C44.52 22.52, 19.73 22.52, 5.63 22.52 M5.63 22.52 C1.88 22.52, 0 20.64, 0 16.89 M5.63 22.52 C1.88 22.52, 0 20.64, 0 16.89 M0 16.89 C0 13.95, 0 11.02, 0 5.63 M0 16.89 C0 13.42, 0 9.96, 0 5.63 M0 5.63 C0 1.88, 1.88 0, 5.63 0 M0 5.63 C0 1.88, 1.88 0, 5.63 0" stroke="#1e1e1e" stroke-width="1" fill="none"></path></g></svg>