<svg version="1.1" xmlns="http://www.w3.org/2000/svg" viewBox="0 0 212.03962248955077 212.03962248955088" width="212.03962248955077" height="212.03962248955088">
  <!-- svg-source:excalidraw -->
  
  <defs>
    <style class="style-fonts">
      
    </style>
    
  </defs>
  <rect x="0" y="0" width="212.03962248955077" height="212.03962248955088" fill="#ffffff00"></rect><g stroke-linecap="round" transform="translate(10 10) rotate(0 96.01981124477538 96.01981124477544)"><path d="M32 0 C71.84 0.24, 99.28 -5.52, 160.04 0 C185.56 5.41, 189.22 12.84, 192.04 32 C191.48 62.62, 191.32 93.01, 192.04 160.04 C188.83 183.49, 175.89 189.22, 160.04 192.04 C116.7 184.69, 80.57 185.29, 32 192.04 C8.54 186.75, 3.09 184.56, 0 160.04 C-0.9 115, 4.56 54.83, 0 32 C-0.36 7.05, 12.25 5.22, 32 0" stroke="none" stroke-width="0" fill="#10151d"></path><path d="M32 0 C54.84 5.06, 88.07 4.31, 160.04 0 M32 0 C74.23 -1.54, 121.26 0.04, 160.04 0 M160.04 0 C182.52 -0.31, 189.86 8.32, 192.04 32 M160.04 0 C178.56 2.56, 189.38 11.65, 192.04 32 M192.04 32 C193.02 74.48, 190.16 123.31, 192.04 160.04 M192.04 32 C194.74 77.46, 195.58 124.13, 192.04 160.04 M192.04 160.04 C189.47 179.56, 184.28 191.63, 160.04 192.04 M192.04 160.04 C189.52 180.89, 178.45 192.94, 160.04 192.04 M160.04 192.04 C122.87 196.28, 77.94 189.55, 32 192.04 M160.04 192.04 C119.84 193.65, 81.72 192.09, 32 192.04 M32 192.04 C12.47 195.83, -1.82 180.94, 0 160.04 M32 192.04 C8.96 192.96, -1.18 177.3, 0 160.04 M0 160.04 C-3.77 124.94, -3.71 89.03, 0 32 M0 160.04 C1.33 120.66, -2.4 78.12, 0 32 M0 32 C0.52 6.68, 12.44 -3.1, 32 0 M0 32 C-3.1 9.96, 14.12 2.2, 32 0" stroke="#1e1e1e" stroke-width="2" fill="none"></path></g><g stroke-linecap="round" transform="translate(35.505381952684274 39.46541035548421) rotate(0 73.77369473255817 11.980341183711914)"><path d="M5.99 0 C44.04 0, 82.08 0, 141.56 0 C145.55 0, 147.55 2, 147.55 5.99 C147.55 10.31, 147.55 14.62, 147.55 17.97 C147.55 21.96, 145.55 23.96, 141.56 23.96 C108.07 23.96, 74.58 23.96, 5.99 23.96 C2 23.96, 0 21.96, 0 17.97 C0 13.58, 0 9.19, 0 5.99 C0 2, 2 0, 5.99 0" stroke="none" stroke-width="0" fill="#d9e9e7"></path><path d="M5.99 0 C47.11 0, 88.22 0, 141.56 0 M5.99 0 C59.77 0, 113.54 0, 141.56 0 M141.56 0 C145.55 0, 147.55 2, 147.55 5.99 M141.56 0 C145.55 0, 147.55 2, 147.55 5.99 M147.55 5.99 C147.55 9.74, 147.55 13.48, 147.55 17.97 M147.55 5.99 C147.55 8.45, 147.55 10.92, 147.55 17.97 M147.55 17.97 C147.55 21.96, 145.55 23.96, 141.56 23.96 M147.55 17.97 C147.55 21.96, 145.55 23.96, 141.56 23.96 M141.56 23.96 C91.72 23.96, 41.88 23.96, 5.99 23.96 M141.56 23.96 C95.96 23.96, 50.36 23.96, 5.99 23.96 M5.99 23.96 C2 23.96, 0 21.96, 0 17.97 M5.99 23.96 C2 23.96, 0 21.96, 0 17.97 M0 17.97 C0 15.39, 0 12.8, 0 5.99 M0 17.97 C0 15.08, 0 12.18, 0 5.99 M0 5.99 C0 2, 2 0, 5.99 0 M0 5.99 C0 2, 2 0, 5.99 0" stroke="#1e1e1e" stroke-width="1" fill="none"></path></g><g stroke-linecap="round" transform="translate(34.78473779027104 88.28756173789924) rotate(0 53.95658641086641 13.601737975369076)"><path d="M6.8 0 C43.84 0, 80.88 0, 101.11 0 C105.65 0, 107.91 2.27, 107.91 6.8 C107.91 10.72, 107.91 14.63, 107.91 20.4 C107.91 24.94, 105.65 27.2, 101.11 27.2 C72.38 27.2, 43.64 27.2, 6.8 27.2 C2.27 27.2, 0 24.94, 0 20.4 C0 17.37, 0 14.34, 0 6.8 C0 2.27, 2.27 0, 6.8 0" stroke="none" stroke-width="0" fill="#b895fd"></path><path d="M6.8 0 C40.54 0, 74.28 0, 101.11 0 M6.8 0 C36.5 0, 66.2 0, 101.11 0 M101.11 0 C105.65 0, 107.91 2.27, 107.91 6.8 M101.11 0 C105.65 0, 107.91 2.27, 107.91 6.8 M107.91 6.8 C107.91 12.06, 107.91 17.31, 107.91 20.4 M107.91 6.8 C107.91 11.41, 107.91 16.03, 107.91 20.4 M107.91 20.4 C107.91 24.94, 105.65 27.2, 101.11 27.2 M107.91 20.4 C107.91 24.94, 105.65 27.2, 101.11 27.2 M101.11 27.2 C66.23 27.2, 31.34 27.2, 6.8 27.2 M101.11 27.2 C68.88 27.2, 36.66 27.2, 6.8 27.2 M6.8 27.2 C2.27 27.2, 0 24.94, 0 20.4 M6.8 27.2 C2.27 27.2, 0 24.94, 0 20.4 M0 20.4 C0 15.96, 0 11.51, 0 6.8 M0 20.4 C0 17.14, 0 13.88, 0 6.8 M0 6.8 C0 2.27, 2.27 0, 6.8 0 M0 6.8 C0 2.27, 2.27 0, 6.8 0" stroke="#1e1e1e" stroke-width="1" fill="none"></path></g><g stroke-linecap="round" transform="translate(35.505406693282794 138.22147578863485) rotate(0 37.47234600764102 11.25971248417298)"><path d="M5.63 0 C21.75 0, 37.87 0, 69.31 0 C73.07 0, 74.94 1.88, 74.94 5.63 C74.94 8.36, 74.94 11.1, 74.94 16.89 C74.94 20.64, 73.07 22.52, 69.31 22.52 C53.79 22.52, 38.27 22.52, 5.63 22.52 C1.88 22.52, 0 20.64, 0 16.89 C0 13.31, 0 9.73, 0 5.63 C0 1.88, 1.88 0, 5.63 0" stroke="none" stroke-width="0" fill="#8b98a9"></path><path d="M5.63 0 C27.59 0, 49.54 0, 69.31 0 M5.63 0 C18.37 0, 31.11 0, 69.31 0 M69.31 0 C73.07 0, 74.94 1.88, 74.94 5.63 M69.31 0 C73.07 0, 74.94 1.88, 74.94 5.63 M74.94 5.63 C74.94 9.38, 74.94 13.13, 74.94 16.89 M74.94 5.63 C74.94 8.05, 74.94 10.47, 74.94 16.89 M74.94 16.89 C74.94 20.64, 73.07 22.52, 69.31 22.52 M74.94 16.89 C74.94 20.64, 73.07 22.52, 69.31 22.52 M69.31 22.52 C44.75 22.52, 20.18 22.52, 5.63 22.52 M69.31 22.52 C53.01 22.52, 36.71 22.52, 5.63 22.52 M5.63 22.52 C1.88 22.52, 0 20.64, 0 16.89 M5.63 22.52 C1.88 22.52, 0 20.64, 0 16.89 M0 16.89 C0 13.8, 0 10.71, 0 5.63 M0 16.89 C0 13.39, 0 9.9, 0 5.63 M0 5.63 C0 1.88, 1.88 0, 5.63 0 M0 5.63 C0 1.88, 1.88 0, 5.63 0" stroke="#1e1e1e" stroke-width="1" fill="none"></path></g></svg>