<svg version="1.1" xmlns="http://www.w3.org/2000/svg" viewBox="0 0 349.66668701171875 108.66665649414062" width="1049.0000610351562" height="325.9999694824219" filter="invert(93%) hue-rotate(180deg)">
  <!-- svg-source:excalidraw -->
  
  <defs>
    <style class="style-fonts">
      
    </style>
    
  </defs>
  <rect x="0" y="0" width="349.66668701171875" height="108.66665649414062" fill="#ffffff"></rect><g stroke-linecap="round" transform="translate(10 10.666656494140625) rotate(0 47 44)"><path d="M22 0 C39.96 -1.3, 57.27 -1.03, 72 0 M22 0 C34.15 -0.28, 47.53 -0.84, 72 0 M72 0 C87.33 1.58, 95.57 8.14, 94 22 M72 0 C87.85 0.4, 93 6.29, 94 22 M94 22 C93.19 39.63, 94.68 55.24, 94 66 M94 22 C93.48 30.77, 93.84 40.94, 94 66 M94 66 C94.51 80.43, 86.04 87.29, 72 88 M94 66 C93.81 78.6, 86.05 88.2, 72 88 M72 88 C52.79 87.61, 36.79 86.84, 22 88 M72 88 C57.28 88.79, 42.3 88, 22 88 M22 88 C7.39 89.82, -1.44 80.37, 0 66 M22 88 C8.23 86.92, -1.03 80.71, 0 66 M0 66 C1.04 49, 0.75 35.99, 0 22 M0 66 C0.48 49.45, -0.72 31.23, 0 22 M0 22 C-0.02 7.78, 7.25 0.67, 22 0 M0 22 C1.39 5.08, 5.47 -1.33, 22 0" stroke="#1e1e1e" stroke-width="2" fill="none"></path></g><g stroke-linecap="round" transform="translate(125 10.666656494140625) rotate(0 47 44)"><path d="M22 0 C31.07 -0.51, 44.62 1.38, 72 0 M22 0 C39.19 -0.32, 55.94 0.63, 72 0 M72 0 C85.74 -1.41, 94.77 7.14, 94 22 M72 0 C88.08 0.17, 92.15 8.79, 94 22 M94 22 C94.51 32.54, 93.45 41.67, 94 66 M94 22 C94.21 31.2, 93.87 42.14, 94 66 M94 66 C95.03 79.97, 87.89 88.75, 72 88 M94 66 C95.55 80.16, 87.9 88.99, 72 88 M72 88 C54.58 88.93, 34.51 86.55, 22 88 M72 88 C52.89 87.58, 33.02 87.34, 22 88 M22 88 C8.39 86.06, -1.58 79.16, 0 66 M22 88 C7.59 87.52, 1.76 79.85, 0 66 M0 66 C-0.27 50.53, -0.56 29.25, 0 22 M0 66 C1.02 50.78, -0.52 35.08, 0 22 M0 22 C1.8 8.56, 5.71 1.49, 22 0 M0 22 C-0.25 6.46, 7.52 0.65, 22 0" stroke="#1e1e1e" stroke-width="2" fill="none"></path></g><g stroke-linecap="round" transform="translate(245.66668701171875 10) rotate(0 47 44)"><path d="M22 0 C31.47 1.3, 46.12 0.9, 72 0 M22 0 C32.56 0.14, 44.17 -0.32, 72 0 M72 0 C87.29 -0.47, 95.46 8.82, 94 22 M72 0 C86.43 0.85, 94.99 6.46, 94 22 M94 22 C92.29 29.79, 93.46 41.01, 94 66 M94 22 C92.86 38.7, 93.84 53.36, 94 66 M94 66 C92.71 79.6, 85.35 88.27, 72 88 M94 66 C92.09 80.95, 86.76 89.05, 72 88 M72 88 C56.12 88.54, 40.45 89.23, 22 88 M72 88 C59.03 89.43, 47.65 88.37, 22 88 M22 88 C5.73 87.6, -1.5 80.21, 0 66 M22 88 C5.14 89.08, 0.11 80.2, 0 66 M0 66 C1.7 48.85, 1.58 32.03, 0 22 M0 66 C-0.21 51.43, 0.54 39.27, 0 22 M0 22 C-0.45 6.54, 6.39 -0.26, 22 0 M0 22 C2.24 5.63, 8.44 0.98, 22 0" stroke="#1e1e1e" stroke-width="2" fill="none"></path></g><g transform="translate(26 22) rotate(0 29.666656494140625 6)" stroke="none"><path fill="#1e1e1e" d="M 2.75,-4.41 Q 2.75,-4.41 4.34,-3.51 5.92,-2.61 7.62,-1.15 9.32,0.29 10.79,1.83 12.26,3.37 14.09,4.67 15.91,5.97 18.08,3.81 20.24,1.64 22.30,0.81 24.37,-0.01 26.69,-1.23 29.02,-2.45 32.39,-2.35 35.76,-2.24 38.34,-1.16 40.92,-0.07 43.23,0.85 45.54,1.78 48.09,3.31 50.64,4.85 52.81,4.77 54.98,4.69 56.22,4.10 57.46,3.50 58.65,3.39 59.84,3.28 61.01,3.55 62.17,3.83 63.19,4.46 64.20,5.10 64.96,6.02 65.73,6.94 66.15,8.06 66.58,9.18 66.63,10.38 66.67,11.57 66.33,12.72 66.00,13.87 65.31,14.85 64.62,15.83 63.66,16.54 62.69,17.25 61.55,17.62 60.41,17.98 59.22,17.96 58.02,17.94 56.89,17.55 55.76,17.15 54.82,16.41 53.88,15.67 53.22,14.67 52.57,13.67 52.26,12.51 51.96,11.35 52.04,10.15 52.13,8.96 52.59,7.86 53.05,6.75 53.84,5.85 54.62,4.95 55.66,4.35 56.70,3.75 57.87,3.51 59.04,3.27 60.23,3.42 61.42,3.56 62.50,4.08 63.57,4.60 64.43,5.44 65.29,6.27 65.83,7.34 66.38,8.41 66.55,9.59 66.73,10.78 66.52,11.95 66.30,13.13 65.73,14.18 65.15,15.23 64.27,16.04 63.39,16.85 62.29,17.34 61.20,17.82 61.20,17.82 61.20,17.82 58.39,18.56 55.57,19.30 53.33,19.30 51.09,19.30 48.71,18.79 46.34,18.27 43.91,17.32 41.49,16.38 39.00,14.78 36.51,13.18 34.05,11.78 31.60,10.37 29.09,11.72 26.58,13.07 24.56,14.18 22.53,15.29 18.26,16.32 13.99,17.35 10.96,15.67 7.94,14.00 5.77,12.47 3.60,10.94 1.90,8.69 0.21,6.44 -1.27,5.42 -2.75,4.41 -3.24,4.01 -3.73,3.62 -4.11,3.12 -4.49,2.62 -4.73,2.04 -4.98,1.47 -5.09,0.85 -5.19,0.23 -5.14,-0.38 -5.10,-1.01 -4.90,-1.60 -4.71,-2.20 -4.37,-2.73 -4.04,-3.26 -3.59,-3.70 -3.14,-4.14 -2.60,-4.45 -2.06,-4.77 -1.46,-4.95 -0.86,-5.12 -0.23,-5.15 0.39,-5.18 1.00,-5.06 1.62,-4.94 2.18,-4.67 2.75,-4.41 2.75,-4.41 L 2.75,-4.41 Z"></path></g><g transform="translate(22 53.333343505859375) rotate(0 29.666656494140625 2.9999847412109375)" stroke="none"><path fill="#2f9e44" d="M 2.79,-4.47 Q 2.79,-4.47 4.36,-3.58 5.92,-2.68 7.91,-1.92 9.90,-1.16 11.70,-2.95 13.50,-4.75 17.11,-6.19 20.72,-7.63 22.94,-7.09 25.16,-6.56 27.84,-5.10 30.52,-3.64 32.88,-2.51 35.25,-1.38 37.46,-2.07 39.67,-2.77 42.16,-3.56 44.65,-4.35 47.44,-4.03 50.23,-3.71 52.38,-3.04 54.52,-2.36 57.07,-1.01 59.62,0.33 62.31,1.54 65.01,2.76 65.59,3.79 66.17,4.81 66.39,5.97 66.61,7.13 66.45,8.30 66.30,9.47 65.77,10.52 65.25,11.58 64.41,12.41 63.58,13.25 62.52,13.77 61.47,14.29 60.30,14.45 59.13,14.61 57.97,14.39 56.82,14.17 55.79,13.59 54.76,13.01 53.98,12.13 53.19,11.25 52.72,10.17 52.26,9.09 52.16,7.91 52.06,6.74 52.35,5.59 52.63,4.45 53.27,3.46 53.90,2.46 54.82,1.72 55.74,0.98 56.85,0.58 57.95,0.17 59.13,0.14 60.31,0.11 61.44,0.45 62.57,0.80 63.52,1.49 64.48,2.18 65.17,3.13 65.86,4.09 66.20,5.22 66.55,6.34 66.52,7.52 66.49,8.70 66.08,9.81 65.67,10.92 64.93,11.83 64.19,12.75 63.20,13.39 62.21,14.02 61.06,14.31 59.92,14.59 58.74,14.50 57.57,14.40 56.49,13.93 55.40,13.47 54.53,12.68 53.65,11.89 53.65,11.89 53.65,11.90 52.36,11.91 51.08,11.93 49.74,10.04 48.41,8.14 46.23,9.28 44.06,10.42 40.86,11.07 37.66,11.71 33.91,11.57 30.15,11.43 27.48,9.91 24.80,8.39 24.10,5.97 23.41,3.55 20.94,5.12 18.48,6.68 15.05,8.66 11.62,10.65 8.02,9.75 4.43,8.84 2.32,7.68 0.20,6.52 -1.29,5.49 -2.79,4.47 -3.29,4.07 -3.78,3.67 -4.17,3.16 -4.55,2.66 -4.80,2.07 -5.05,1.49 -5.16,0.86 -5.27,0.24 -5.22,-0.39 -5.17,-1.02 -4.97,-1.63 -4.77,-2.23 -4.44,-2.77 -4.10,-3.31 -3.64,-3.75 -3.19,-4.20 -2.64,-4.52 -2.09,-4.84 -1.48,-5.02 -0.87,-5.20 -0.23,-5.23 0.39,-5.26 1.02,-5.13 1.64,-5.01 2.22,-4.74 2.79,-4.47 2.79,-4.47 L 2.79,-4.47 Z"></path></g><g transform="translate(20.666656494140625 77.33334350585938) rotate(0 9.666671752929688 0.3333282470703125)" stroke="none"><path fill="#1971c2" d="M 1.61,-4.85 Q 1.61,-4.85 2.79,-4.55 3.97,-4.25 6.37,-4.06 8.77,-3.86 11.28,-4.72 13.79,-5.57 14.95,-6.14 16.10,-6.70 17.04,-7.08 17.98,-7.45 18.99,-7.51 20.01,-7.56 20.99,-7.29 21.96,-7.02 22.80,-6.45 23.64,-5.88 24.26,-5.07 24.87,-4.26 25.19,-3.30 25.52,-2.34 25.52,-1.33 25.52,-0.31 25.19,0.64 24.87,1.60 24.25,2.41 23.64,3.22 22.80,3.79 21.96,4.36 20.98,4.63 20.00,4.90 18.99,4.84 17.98,4.79 17.04,4.41 16.09,4.04 15.32,3.38 14.55,2.72 14.02,1.85 13.50,0.98 13.28,-0.00 13.07,-0.99 13.18,-2.00 13.29,-3.01 13.71,-3.93 14.14,-4.85 14.84,-5.59 15.53,-6.32 16.43,-6.80 17.33,-7.27 18.33,-7.44 19.33,-7.60 20.33,-7.44 21.33,-7.27 22.23,-6.80 23.13,-6.32 23.82,-5.58 24.52,-4.85 24.95,-3.92 25.37,-3.00 25.48,-1.99 25.59,-0.99 25.37,0.00 25.15,0.99 24.63,1.86 24.11,2.72 23.33,3.38 22.56,4.04 22.56,4.04 22.56,4.04 19.09,5.54 15.62,7.04 12.73,7.49 9.83,7.93 7.51,7.70 5.20,7.47 2.91,6.63 0.62,5.79 -0.49,5.32 -1.61,4.85 -2.17,4.59 -2.73,4.32 -3.21,3.93 -3.68,3.54 -4.05,3.05 -4.43,2.56 -4.67,1.99 -4.91,1.42 -5.01,0.81 -5.11,0.20 -5.06,-0.40 -5.01,-1.02 -4.81,-1.60 -4.62,-2.19 -4.29,-2.71 -3.96,-3.23 -3.52,-3.66 -3.07,-4.08 -2.54,-4.39 -2.00,-4.70 -1.41,-4.87 -0.82,-5.05 -0.20,-5.07 0.40,-5.10 1.01,-4.97 1.61,-4.85 1.61,-4.85 L 1.61,-4.85 Z"></path></g><g transform="translate(46.666656494140625 74) rotate(0 17.000015258789062 4.6666717529296875)" stroke="none"><path fill="#1971c2" d="M 2.56,-4.49 Q 2.56,-4.49 3.95,-3.80 5.33,-3.11 7.48,-2.01 9.63,-0.91 11.81,0.25 13.98,1.43 15.79,2.66 17.59,3.90 19.95,3.28 22.31,2.65 24.49,2.02 26.66,1.39 33.09,3.23 39.51,5.07 40.05,6.06 40.59,7.05 40.78,8.16 40.97,9.27 40.79,10.39 40.62,11.50 40.10,12.50 39.58,13.50 38.77,14.29 37.95,15.07 36.93,15.55 35.91,16.03 34.79,16.16 33.67,16.29 32.57,16.06 31.46,15.83 30.49,15.25 29.52,14.68 28.79,13.82 28.05,12.97 27.62,11.92 27.20,10.88 27.13,9.75 27.06,8.63 27.35,7.54 27.64,6.45 28.27,5.51 28.90,4.57 29.79,3.88 30.68,3.19 31.75,2.82 32.81,2.46 33.94,2.45 35.07,2.44 36.14,2.79 37.21,3.14 38.12,3.82 39.02,4.49 39.66,5.42 40.30,6.35 40.61,7.44 40.92,8.52 40.87,9.65 40.82,10.78 40.41,11.83 40.00,12.88 39.27,13.74 38.55,14.61 37.59,15.20 36.62,15.79 35.53,16.04 34.43,16.29 33.30,16.17 32.18,16.06 31.15,15.59 30.13,15.13 29.30,14.36 28.48,13.59 28.48,13.59 28.48,13.59 29.27,14.27 30.06,14.94 27.78,15.23 25.49,15.51 23.18,15.72 20.88,15.94 18.47,15.75 16.06,15.56 13.20,14.51 10.34,13.47 7.56,11.64 4.78,9.82 2.41,8.00 0.03,6.17 -1.26,5.33 -2.56,4.49 -3.06,4.12 -3.56,3.74 -3.96,3.26 -4.36,2.78 -4.63,2.22 -4.90,1.66 -5.02,1.05 -5.15,0.43 -5.13,-0.18 -5.11,-0.80 -4.94,-1.40 -4.77,-2.00 -4.46,-2.54 -4.15,-3.09 -3.72,-3.54 -3.29,-3.99 -2.76,-4.33 -2.23,-4.66 -1.64,-4.86 -1.05,-5.06 -0.43,-5.11 0.18,-5.17 0.80,-5.07 1.41,-4.97 1.99,-4.73 2.56,-4.49 2.56,-4.49 L 2.56,-4.49 Z"></path></g><g transform="translate(202 25.333343505859375) rotate(0 -29.333343505859375 3)" stroke="none"><path fill="#f08c00" d="M 0.86,5.17 Q 0.86,5.17 -1.43,5.59 -3.72,6.01 -6.82,6.80 -9.92,7.58 -13.20,8.64 -16.48,9.71 -18.72,10.36 -20.95,11.01 -23.86,11.59 -26.76,12.17 -29.30,12.32 -31.83,12.46 -33.93,11.86 -36.03,11.25 -38.13,10.15 -40.23,9.06 -42.98,7.98 -45.74,6.91 -47.87,6.74 -49.99,6.57 -51.41,8.24 -52.83,9.91 -53.80,10.37 -54.77,10.83 -55.86,11.29 -56.94,11.75 -58.12,11.84 -59.30,11.93 -60.44,11.64 -61.59,11.35 -62.58,10.70 -63.57,10.06 -64.30,9.14 -65.04,8.21 -65.44,7.10 -65.84,5.99 -65.86,4.81 -65.89,3.63 -65.53,2.50 -65.18,1.38 -64.48,0.42 -63.79,-0.52 -62.83,-1.20 -61.86,-1.89 -60.73,-2.23 -59.60,-2.56 -58.42,-2.53 -57.24,-2.49 -56.14,-2.07 -55.03,-1.66 -54.11,-0.91 -53.20,-0.17 -52.57,0.82 -51.94,1.82 -51.66,2.97 -51.39,4.12 -51.49,5.29 -51.59,6.47 -52.07,7.55 -52.54,8.63 -53.33,9.50 -54.13,10.38 -55.16,10.95 -56.19,11.53 -57.35,11.74 -58.51,11.96 -59.68,11.79 -60.85,11.62 -61.90,11.09 -62.96,10.56 -63.79,9.72 -64.62,8.88 -65.13,7.82 -65.65,6.76 -65.80,5.59 -65.95,4.42 -65.72,3.26 -65.49,2.10 -64.91,1.08 -64.32,0.05 -63.44,-0.72 -62.55,-1.50 -62.55,-1.50 -62.55,-1.50 -60.83,-2.21 -59.11,-2.91 -56.64,-4.43 -54.17,-5.94 -51.12,-6.49 -48.07,-7.04 -45.62,-6.62 -43.17,-6.19 -40.65,-5.30 -38.14,-4.42 -35.37,-2.93 -32.60,-1.44 -30.33,-0.93 -28.05,-0.43 -25.72,-0.63 -23.38,-0.82 -21.23,-1.26 -19.08,-1.69 -15.84,-2.47 -12.60,-3.26 -9.04,-3.87 -5.47,-4.48 -3.16,-4.83 -0.86,-5.17 -0.23,-5.20 0.40,-5.23 1.02,-5.10 1.64,-4.98 2.21,-4.71 2.78,-4.44 3.27,-4.04 3.77,-3.65 4.15,-3.14 4.53,-2.64 4.78,-2.06 5.03,-1.48 5.13,-0.85 5.24,-0.23 5.19,0.39 5.14,1.02 4.94,1.63 4.75,2.23 4.41,2.76 4.07,3.30 3.62,3.74 3.16,4.18 2.62,4.50 2.07,4.82 1.46,4.99 0.86,5.17 0.86,5.17 L 0.86,5.17 Z"></path></g><g transform="translate(140.66668701171875 55.333343505859375) rotate(0 28.666656494140625 2)" stroke="none"><path fill="#1971c2" d="M 1.14,-5.14 Q 1.14,-5.14 2.88,-4.83 4.62,-4.52 7.13,-4.52 9.64,-4.52 11.91,-4.61 14.18,-4.70 16.70,-4.84 19.22,-4.98 21.40,-5.08 23.57,-5.17 27.40,-4.51 31.23,-3.85 33.54,-3.40 35.84,-2.96 37.96,-3.73 40.07,-4.50 42.85,-5.67 45.64,-6.83 49.09,-6.40 52.55,-5.97 54.96,-4.65 57.37,-3.34 57.52,-3.94 57.67,-4.55 58.82,-4.31 59.96,-4.06 60.97,-3.47 61.97,-2.87 62.74,-1.98 63.50,-1.10 63.94,-0.01 64.38,1.06 64.45,2.23 64.52,3.40 64.22,4.52 63.91,5.65 63.26,6.63 62.61,7.60 61.68,8.31 60.76,9.03 59.65,9.41 58.55,9.79 57.38,9.80 56.21,9.81 55.09,9.44 53.98,9.07 53.05,8.37 52.11,7.67 51.45,6.71 50.79,5.74 50.47,4.62 50.14,3.49 50.20,2.32 50.26,1.15 50.68,0.06 51.11,-1.02 51.86,-1.91 52.61,-2.81 53.61,-3.42 54.61,-4.03 55.75,-4.29 56.89,-4.55 58.05,-4.43 59.22,-4.31 60.28,-3.82 61.35,-3.34 62.20,-2.54 63.06,-1.74 63.61,-0.71 64.17,0.31 64.36,1.46 64.56,2.61 64.38,3.77 64.20,4.93 63.65,5.96 63.11,7.00 62.27,7.81 61.42,8.62 60.37,9.12 59.31,9.62 58.15,9.75 56.98,9.88 56.98,9.88 56.99,9.88 55.05,9.48 53.11,9.07 51.55,7.41 49.98,5.76 47.97,6.89 45.97,8.01 43.84,8.98 41.71,9.95 38.00,10.42 34.29,10.88 31.55,10.27 28.81,9.66 26.19,8.75 23.57,7.84 21.39,7.75 19.22,7.65 16.67,7.50 14.13,7.35 10.77,7.14 7.40,6.92 4.84,6.49 2.27,6.06 0.56,5.60 -1.14,5.14 -1.74,4.93 -2.34,4.72 -2.87,4.37 -3.40,4.02 -3.83,3.56 -4.27,3.09 -4.57,2.53 -4.88,1.98 -5.05,1.36 -5.22,0.75 -5.23,0.12 -5.24,-0.51 -5.11,-1.13 -4.97,-1.75 -4.69,-2.32 -4.40,-2.89 -3.99,-3.38 -3.58,-3.86 -3.07,-4.24 -2.55,-4.61 -1.96,-4.85 -1.37,-5.09 -0.75,-5.18 -0.12,-5.27 0.51,-5.21 1.14,-5.14 1.14,-5.14 L 1.14,-5.14 Z"></path></g><g transform="translate(146 77.33334350585938) rotate(0 28.666656494140625 3.666656494140625)" stroke="none"><path fill="#f08c00" d="M 2.18,-4.80 Q 2.18,-4.80 4.30,-3.87 6.42,-2.95 8.76,-2.39 11.09,-1.83 13.57,-1.28 16.04,-0.73 18.53,-0.27 21.01,0.18 23.58,0.16 26.15,0.14 28.31,0.05 30.46,-0.03 33.24,-0.68 36.02,-1.33 38.16,-1.47 40.31,-1.61 42.96,-1.68 45.61,-1.74 47.96,-1.78 50.31,-1.83 53.09,-1.11 55.87,-0.39 56.79,-0.16 57.71,0.06 58.87,0.31 60.02,0.56 61.03,1.17 62.04,1.77 62.80,2.67 63.56,3.57 64.00,4.66 64.44,5.75 64.50,6.93 64.57,8.11 64.25,9.24 63.94,10.38 63.28,11.35 62.62,12.33 61.68,13.04 60.75,13.76 59.63,14.14 58.51,14.51 57.34,14.51 56.16,14.52 55.04,14.14 53.92,13.77 52.99,13.05 52.05,12.34 51.38,11.37 50.72,10.39 50.41,9.26 50.09,8.12 50.15,6.95 50.21,5.77 50.65,4.68 51.08,3.58 51.85,2.68 52.61,1.78 53.62,1.17 54.63,0.57 55.78,0.31 56.93,0.06 58.10,0.18 59.27,0.31 60.34,0.80 61.41,1.30 62.27,2.11 63.12,2.92 63.67,3.96 64.23,5.00 64.42,6.16 64.61,7.32 64.42,8.48 64.23,9.65 63.68,10.69 63.13,11.73 62.27,12.54 61.42,13.35 60.35,13.85 59.28,14.34 58.11,14.47 56.94,14.60 56.94,14.60 56.94,14.60 52.88,13.54 48.82,12.49 46.50,12.43 44.19,12.38 41.33,12.32 38.47,12.26 36.11,12.58 33.76,12.90 31.09,13.09 28.42,13.28 25.75,13.15 23.09,13.02 20.96,12.72 18.84,12.41 15.48,11.47 12.12,10.53 9.62,9.76 7.12,8.99 4.56,7.89 2.00,6.78 -0.08,5.79 -2.18,4.80 -2.72,4.47 -3.26,4.13 -3.71,3.68 -4.16,3.23 -4.49,2.69 -4.81,2.14 -5.00,1.53 -5.19,0.93 -5.22,0.29 -5.26,-0.33 -5.14,-0.96 -5.02,-1.58 -4.76,-2.16 -4.50,-2.74 -4.10,-3.24 -3.71,-3.74 -3.21,-4.13 -2.71,-4.52 -2.13,-4.78 -1.55,-5.04 -0.92,-5.15 -0.29,-5.26 0.33,-5.22 0.97,-5.18 1.57,-4.99 2.18,-4.80 2.18,-4.80 L 2.18,-4.80 Z"></path></g><g transform="translate(254 25.333343505859375) rotate(0 33.666656494140625 4)" stroke="none"><path fill="#2f9e44" d="M 0.57,-5.13 Q 0.57,-5.13 2.31,-5.02 4.05,-4.91 6.61,-4.69 9.18,-4.46 11.22,-5.15 13.27,-5.85 15.82,-6.11 18.37,-6.36 20.99,-6.12 23.62,-5.87 25.91,-5.63 28.20,-5.39 30.44,-4.46 32.68,-3.52 34.68,-2.44 36.68,-1.35 39.57,-0.30 42.47,0.73 44.62,0.43 46.76,0.12 49.93,-0.85 53.09,-1.82 55.53,-2.59 57.97,-3.35 60.40,-3.39 62.83,-3.44 66.81,-2.70 70.78,-1.96 71.75,-1.23 72.72,-0.51 73.40,0.48 74.09,1.47 74.42,2.64 74.75,3.80 74.69,5.01 74.64,6.22 74.20,7.34 73.76,8.47 72.98,9.39 72.21,10.32 71.18,10.95 70.14,11.58 68.97,11.85 67.79,12.12 66.58,12.00 65.38,11.88 64.28,11.38 63.18,10.88 62.30,10.05 61.41,9.23 60.84,8.16 60.26,7.10 60.06,5.91 59.86,4.72 60.04,3.52 60.23,2.33 60.79,1.25 61.35,0.18 62.22,-0.65 63.09,-1.48 64.18,-2.00 65.28,-2.51 66.48,-2.65 67.68,-2.79 68.86,-2.54 70.04,-2.29 71.09,-1.67 72.13,-1.06 72.91,-0.14 73.70,0.76 74.16,1.88 74.61,3.00 74.69,4.21 74.76,5.42 74.45,6.58 74.13,7.75 73.46,8.76 72.79,9.76 71.83,10.50 70.87,11.24 69.73,11.63 68.59,12.03 67.38,12.04 66.17,12.04 65.02,11.67 63.87,11.29 63.88,11.29 63.88,11.29 62.14,10.61 60.41,9.93 57.55,11.15 54.70,12.37 52.55,13.10 50.40,13.83 47.39,14.46 44.39,15.10 42.11,14.61 39.82,14.12 36.48,12.91 33.14,11.69 30.00,10.20 26.86,8.71 24.82,7.91 22.78,7.11 20.65,6.75 18.52,6.39 16.39,6.43 14.25,6.48 11.36,6.73 8.46,6.98 5.65,6.33 2.84,5.68 1.13,5.41 -0.57,5.13 -1.17,4.99 -1.78,4.85 -2.33,4.56 -2.89,4.28 -3.36,3.87 -3.83,3.46 -4.19,2.95 -4.55,2.44 -4.78,1.86 -5.00,1.28 -5.08,0.67 -5.17,0.05 -5.10,-0.56 -5.03,-1.18 -4.81,-1.77 -4.60,-2.35 -4.25,-2.87 -3.90,-3.38 -3.44,-3.80 -2.98,-4.22 -2.43,-4.52 -1.88,-4.81 -1.27,-4.97 -0.67,-5.12 -0.05,-5.13 0.57,-5.13 0.57,-5.13 L 0.57,-5.13 Z"></path></g><g transform="translate(255.33331298828125 52.666656494140625) rotate(0 32 3.66668701171875)" stroke="none"><path fill="#e03131" d="M 1.02,-5.12 Q 1.02,-5.12 2.95,-4.80 4.88,-4.48 7.49,-4.15 10.10,-3.81 12.38,-3.63 14.66,-3.45 17.09,-4.74 19.52,-6.03 22.44,-6.89 25.36,-7.76 28.54,-7.38 31.71,-6.99 34.44,-6.26 37.17,-5.52 39.34,-4.16 41.51,-2.79 43.64,-1.97 45.78,-1.15 47.94,-0.20 50.11,0.74 52.26,1.08 54.41,1.42 57.49,1.08 60.57,0.73 62.25,0.70 63.94,0.66 65.11,0.85 66.29,1.03 67.34,1.58 68.39,2.13 69.21,2.98 70.03,3.84 70.54,4.91 71.05,5.98 71.18,7.16 71.32,8.34 71.07,9.50 70.83,10.66 70.22,11.68 69.62,12.70 68.72,13.48 67.82,14.25 66.72,14.70 65.62,15.14 64.44,15.22 63.25,15.29 62.11,14.98 60.96,14.67 59.98,14.01 58.99,13.35 58.27,12.41 57.54,11.48 57.16,10.35 56.77,9.23 56.76,8.05 56.75,6.86 57.12,5.73 57.49,4.61 58.20,3.66 58.92,2.71 59.89,2.04 60.87,1.36 62.01,1.04 63.15,0.71 64.34,0.77 65.52,0.82 66.63,1.25 67.73,1.69 68.64,2.45 69.55,3.21 70.17,4.22 70.79,5.23 71.05,6.39 71.31,7.55 71.19,8.73 71.07,9.91 70.58,10.99 70.09,12.07 69.28,12.93 68.47,13.80 67.43,14.36 66.38,14.93 65.22,15.13 64.05,15.33 64.05,15.33 64.05,15.33 62.88,15.13 61.70,14.92 59.24,15.42 56.77,15.92 54.06,15.77 51.34,15.63 48.35,14.88 45.37,14.12 43.24,13.14 41.10,12.16 37.58,10.22 34.06,8.27 31.12,6.61 28.18,4.95 25.45,5.37 22.72,5.79 20.26,7.05 17.80,8.31 14.97,8.45 12.14,8.58 9.60,7.96 7.07,7.34 4.92,6.68 2.78,6.02 0.87,5.57 -1.02,5.12 -1.62,4.92 -2.22,4.72 -2.75,4.39 -3.28,4.05 -3.72,3.60 -4.16,3.15 -4.48,2.61 -4.79,2.06 -4.97,1.46 -5.15,0.85 -5.18,0.22 -5.20,-0.39 -5.08,-1.01 -4.96,-1.63 -4.69,-2.20 -4.42,-2.77 -4.02,-3.26 -3.63,-3.75 -3.13,-4.13 -2.62,-4.51 -2.05,-4.76 -1.47,-5.01 -0.85,-5.11 -0.23,-5.21 0.39,-5.17 1.02,-5.12 1.02,-5.12 L 1.02,-5.12 Z"></path></g><g transform="translate(256.66668701171875 79.33334350585938) rotate(0 28 1.666656494140625)" stroke="none"><path fill="#1e1e1e" d="M 1.94,-4.87 Q 1.94,-4.87 3.88,-4.16 5.82,-3.45 8.23,-2.97 10.64,-2.49 13.11,-4.29 15.58,-6.09 18.51,-6.83 21.44,-7.57 24.14,-7.76 26.83,-7.94 29.00,-8.03 31.17,-8.12 34.17,-7.42 37.17,-6.71 39.24,-5.28 41.30,-3.84 43.46,-3.64 45.62,-3.44 48.03,-3.36 50.43,-3.28 54.32,-2.81 58.20,-2.34 59.26,-1.80 60.32,-1.27 61.15,-0.42 61.99,0.42 62.51,1.48 63.03,2.55 63.18,3.73 63.34,4.91 63.10,6.07 62.87,7.24 62.28,8.27 61.69,9.30 60.80,10.09 59.91,10.88 58.82,11.34 57.72,11.80 56.54,11.89 55.35,11.98 54.20,11.68 53.05,11.39 52.05,10.74 51.05,10.10 50.32,9.17 49.58,8.23 49.18,7.12 48.77,6.00 48.75,4.81 48.72,3.62 49.08,2.49 49.44,1.36 50.14,0.39 50.84,-0.56 51.81,-1.24 52.77,-1.93 53.91,-2.27 55.05,-2.61 56.24,-2.57 57.43,-2.53 58.54,-2.12 59.65,-1.70 60.57,-0.95 61.49,-0.20 62.13,0.80 62.76,1.80 63.04,2.96 63.32,4.11 63.22,5.30 63.11,6.48 62.63,7.57 62.16,8.66 61.36,9.54 60.56,10.42 59.52,10.99 58.48,11.57 57.31,11.79 56.14,12.00 54.97,11.84 53.79,11.67 53.79,11.67 53.79,11.67 52.11,11.47 50.42,11.28 47.87,11.19 45.32,11.11 43.15,10.36 40.98,9.61 38.45,8.92 35.92,8.22 33.92,6.84 31.92,5.46 29.44,5.38 26.96,5.30 24.44,4.74 21.92,4.18 20.08,5.48 18.24,6.78 16.13,7.76 14.03,8.73 10.67,8.63 7.31,8.52 4.57,7.52 1.83,6.51 -0.05,5.69 -1.94,4.87 -2.50,4.57 -3.05,4.26 -3.52,3.83 -3.99,3.40 -4.34,2.88 -4.69,2.35 -4.90,1.75 -5.11,1.16 -5.18,0.53 -5.24,-0.09 -5.16,-0.72 -5.07,-1.34 -4.83,-1.93 -4.60,-2.52 -4.23,-3.03 -3.86,-3.55 -3.38,-3.96 -2.90,-4.37 -2.33,-4.65 -1.77,-4.94 -1.15,-5.08 -0.53,-5.22 0.09,-5.21 0.72,-5.19 1.33,-5.03 1.95,-4.87 1.95,-4.87 L 1.94,-4.87 Z"></path></g></svg>