<?xml version="1.0" encoding="UTF-8" standalone="no"?>
<!-- Created with Inkscape (http://www.inkscape.org/) -->

<svg
   width="5.8208361mm"
   height="5.8208299mm"
   viewBox="0 0 5.8208361 5.8208299"
   version="1.1"
   id="svg5"
   xml:space="preserve"
   xmlns="http://www.w3.org/2000/svg"
   xmlns:svg="http://www.w3.org/2000/svg"><defs
     id="defs2" /><g
     id="layer1"
     transform="translate(-98.885104,-145.73418)"><path
       d="m 99.737546,150.70257 c -0.244532,-0.24453 -0.314685,-0.61753 -0.237997,-1.10695 -0.400297,-0.29185 -0.614445,-0.6052 -0.614445,-0.95102 0,-0.34582 0.214148,-0.65918 0.614445,-0.95103 -0.07669,-0.48941 -0.0065,-0.86242 0.237997,-1.10695 0.244531,-0.24453 0.617534,-0.31468 1.106954,-0.238 0.29184,-0.40029 0.6052,-0.61444 0.95102,-0.61444 0.34582,0 0.65918,0.21415 0.95102,0.61444 0.48942,-0.0767 0.86243,-0.007 1.10696,0.238 0.24453,0.24453 0.31468,0.61754 0.23799,1.10695 0.4003,0.29185 0.61445,0.60521 0.61445,0.95103 0,0.34582 -0.21415,0.65917 -0.61445,0.95102 0.0767,0.48942 0.007,0.86242 -0.23799,1.10695 -0.24453,0.24453 -0.61754,0.31469 -1.10696,0.238 -0.29184,0.40029 -0.6052,0.61444 -0.95102,0.61444 -0.34582,0 -0.65918,-0.21415 -0.95102,-0.61444 -0.48942,0.0767 -0.862423,0.007 -1.106954,-0.238 z m 1.172304,-0.31226 c 0.1074,-0.023 0.21785,0.0228 0.27753,0.11496 0.23303,0.36005 0.44083,0.52058 0.60814,0.52058 0.16731,0 0.37511,-0.16053 0.60815,-0.52058 0.0597,-0.0922 0.17012,-0.13796 0.27752,-0.11496 0.41938,0.0898 0.67982,0.0564 0.79813,-0.0619 0.11831,-0.1183 0.15173,-0.37875 0.0619,-0.79812 -0.023,-0.10741 0.0227,-0.21785 0.11495,-0.27753 0.36005,-0.23303 0.52058,-0.44083 0.52058,-0.60814 0,-0.16732 -0.16053,-0.37511 -0.52058,-0.60815 -0.0922,-0.0597 -0.13795,-0.17012 -0.11495,-0.27752 0.0898,-0.41938 0.0564,-0.67982 -0.0619,-0.79813 -0.11831,-0.11831 -0.37875,-0.15173 -0.79813,-0.0619 -0.1074,0.023 -0.21784,-0.0228 -0.27752,-0.11496 -0.23304,-0.36005 -0.44084,-0.52057 -0.60815,-0.52057 -0.16731,0 -0.37511,0.16052 -0.60814,0.52057 -0.0597,0.0922 -0.17013,0.13796 -0.27753,0.11496 -0.41937,-0.0898 -0.67982,-0.0564 -0.79813,0.0619 -0.118306,0.11831 -0.151729,0.37875 -0.0619,0.79813 0.023,0.1074 -0.0227,0.21784 -0.114951,0.27752 -0.36005,0.23304 -0.520578,0.44083 -0.520578,0.60815 0,0.16731 0.160528,0.37511 0.520578,0.60814 0.09221,0.0597 0.137961,0.17012 0.114951,0.27753 -0.08981,0.41937 -0.05639,0.67982 0.0619,0.79812 0.11831,0.11831 0.37876,0.15174 0.79813,0.0619 z m 0.62109,-1.59072 1.13583,-1.13583 0.37417,0.37417 -1.51,1.51001 -0.98084,-0.98084 0.37418,-0.37418 z"
       fill-rule="evenodd"
       id="path71"
       style="fill:#2a79cc;fill-opacity:1;stroke-width:0.264583" /></g></svg>
